<svg width="57" height="57" viewBox="0 0 57 57" fill="none" xmlns="http://www.w3.org/2000/svg">
<mask id="mask0_810_1569" style="mask-type:alpha" maskUnits="userSpaceOnUse" x="0" y="0" width="57" height="57">
<rect width="57" height="57" fill="#FF0000"/>
</mask>
<g mask="url(#mask0_810_1569)">
<path d="M14.443 11.5166C15.2961 12.4025 19.7203 16.0693 21.8258 17.7919C23.2887 16.7529 26.8625 14.0431 29.4547 11.5166C32.6949 8.35836 30.8082 3.96968 29.9469 2.57515C29.0856 1.18062 24.6559 2.12397 23.7125 2.57515C22.7692 3.02633 21.8258 4.95405 19.9801 2.57515C18.1344 0.19624 14.0328 2.12397 12.3922 3.96968C10.7516 5.81538 13.3766 10.4091 14.443 11.5166Z" fill="#F2F7F7"/>
<path d="M36.9831 16.3515C37.5202 16.9081 40.3056 19.2115 41.6312 20.2937C42.5522 19.641 44.8022 17.9387 46.4342 16.3515C48.4742 14.3675 47.2864 11.6106 46.7441 10.7345C46.2018 9.85848 43.413 10.4511 42.8191 10.7345C42.2251 11.018 41.6312 12.229 40.4692 10.7345C39.3072 9.2401 36.7249 10.4511 35.692 11.6106C34.6591 12.77 36.3117 15.6558 36.9831 16.3515Z" fill="#F2F7F7"/>
<path d="M15.5915 0.562454C15.2962 0.628078 14.6727 0.846828 14.2243 1.06558C11.6759 2.29058 10.3196 5.37495 11.0524 8.25152C11.5665 10.2531 12.9446 12.025 16.0837 14.6828C18.3149 16.564 21.3009 18.9375 21.5196 18.9921C21.6618 19.0359 21.8915 19.025 22.0337 18.9921C22.318 18.9265 26.6274 15.4375 28.5634 13.7203C30.8274 11.7078 32.0415 10.0234 32.4899 8.26245C33.5509 4.09527 30.3462 0.124954 26.2118 0.474955C24.6915 0.606203 23.4555 1.24058 22.3727 2.4437L21.7712 3.09995L21.1477 2.41089C20.0102 1.15308 18.7634 0.562454 17.1227 0.496828C16.5868 0.474955 15.8977 0.496828 15.5915 0.562454ZM17.9102 2.80464C19.0587 3.19839 20.1087 4.2812 20.579 5.5937C20.8634 6.37027 21.2024 6.67652 21.7712 6.67652C22.318 6.67652 22.7009 6.35933 22.9087 5.71402C23.4665 4.05152 24.9212 2.77183 26.4196 2.65152C29.1212 2.4437 31.1446 5.13433 30.3243 7.84683C29.7665 9.67339 28.4102 11.1062 23.2805 15.3062L21.7712 16.5312L19.3977 14.5843C15.2415 11.1828 13.743 9.54214 13.229 7.85777C12.8352 6.57808 13.0649 5.19995 13.8415 4.13902C14.7493 2.90308 16.4993 2.33433 17.9102 2.80464Z" fill="#1F3332"/>
<path d="M37.0726 8.78763C36.3507 8.99545 35.6726 9.42201 35.0929 10.0454C33.4851 11.7626 33.3867 14.2892 34.8413 16.4111C35.4429 17.297 37.0617 18.8939 39.2492 20.7751C40.9226 22.2079 41.2288 22.3939 41.721 22.2736C42.071 22.1861 45.5929 19.1454 46.8288 17.8767C48.3382 16.3236 48.9617 15.1642 49.082 13.6876C49.246 11.7298 48.1523 9.80482 46.4132 8.99545C45.8663 8.74389 45.6367 8.70014 44.7398 8.70014C43.821 8.70014 43.6242 8.73295 43.0882 9.00638C42.7492 9.17045 42.246 9.50951 41.9617 9.75014L41.4585 10.1986L40.9554 9.75014C40.157 9.05014 39.4242 8.74389 38.4288 8.6892C37.9257 8.66732 37.3679 8.70014 37.0726 8.78763ZM39.0195 11.0626C39.5445 11.3142 39.971 11.872 40.3648 12.7798C40.6492 13.447 40.9226 13.6767 41.4367 13.6767C41.9945 13.6767 42.2242 13.5017 42.5085 12.8345C43.2632 11.1283 44.2804 10.5048 45.4835 10.997C46.3913 11.3798 46.8617 12.1564 46.8726 13.2939C46.8726 14.3001 46.5226 15.022 45.4726 16.1486C44.6632 17.0126 41.6335 19.6923 41.4585 19.6923C41.2945 19.6923 39.0304 17.7236 37.8382 16.5314C36.3945 15.0876 36.0445 14.4533 36.0445 13.2939C36.0554 12.1673 36.5148 11.4017 37.4117 11.0079C37.9476 10.7783 38.4617 10.7892 39.0195 11.0626Z" fill="#1F3332"/>
<path d="M7.83935 28.0457L33.9253 28.5378L48.5269 28.0457L54.7202 37.8894L48.5269 38.4636V54.9109H8.45459V38.4636H2.13818V37.0281L7.83935 28.0457Z" fill="#ACCDCD"/>
<path d="M7.46475 27.4907C7.11475 27.6875 0.333496 37.8922 0.333496 38.2313C0.333496 38.3735 0.388184 38.625 0.464746 38.7782C0.716309 39.336 0.956934 39.3797 4.05225 39.3797H6.896V47.4735C6.896 56.2672 6.88506 56.0266 7.49756 56.311C7.91318 56.4969 48.7538 56.4969 49.1694 56.311C49.7819 56.0266 49.771 56.2672 49.771 47.4735V39.3797H52.6147C54.5726 39.3797 55.5351 39.336 55.7319 39.2485C56.0601 39.0954 56.3335 38.6469 56.3335 38.2422C56.3335 37.8594 49.5304 27.6438 49.1585 27.4688C48.7319 27.2829 44.3788 27.3047 43.9851 27.5016C43.2632 27.8844 43.2632 29 43.9851 29.3829C44.2147 29.4922 44.7616 29.536 46.1944 29.536H48.0976L50.4491 33.0579C51.7397 35.0047 52.8882 36.7219 52.9866 36.886L53.1835 37.1922H44.3351H35.4757L32.9491 33.386L30.4116 29.5907L32.7413 29.536C34.0101 29.5032 35.1476 29.4375 35.2569 29.3829C35.4866 29.2735 35.771 28.7594 35.771 28.4532C35.771 28.0813 35.5194 27.6657 35.2132 27.5016C34.7866 27.2829 7.8585 27.2719 7.46475 27.4907ZM26.0804 29.8313C25.9819 30.0063 24.8335 31.7235 23.5429 33.6594L21.1913 37.1922H12.3319H3.4835L3.68037 36.886C3.77881 36.7219 4.92725 35.0047 6.21787 33.0579L8.56943 29.536H17.4288H26.2772L26.0804 29.8313ZM27.2397 43.2079V54.2547H18.1616H9.0835V46.8172V39.3797H15.5366C20.0866 39.3797 22.0554 39.3469 22.2522 39.2594C22.4272 39.1719 23.346 37.9032 24.8444 35.65C26.1241 33.725 27.1851 32.161 27.2069 32.161C27.2179 32.161 27.2397 37.1266 27.2397 43.2079ZM31.8226 35.65C33.321 37.9032 34.2397 39.1719 34.4147 39.2594C34.6116 39.3469 36.5804 39.3797 41.1304 39.3797H47.5835V46.8172V54.2547H38.5054H29.4272V43.2079C29.4272 37.1266 29.4491 32.161 29.4601 32.161C29.4819 32.161 30.5429 33.725 31.8226 35.65Z" fill="#1F3332"/>
<rect x="32.0796" y="27.3894" width="14.3555" height="2.0918" fill="#1F3332"/>
</g>
</svg>
