<svg width="78" height="67" viewBox="0 0 78 67" fill="none" xmlns="http://www.w3.org/2000/svg">
<mask id="mask0_792_11474" style="mask-type:alpha" maskUnits="userSpaceOnUse" x="0" y="0" width="78" height="67">
<rect width="78" height="67" fill="white"/>
</mask>
<g mask="url(#mask0_792_11474)">
<path d="M16 2.5V17.5H20V49.5H27.5L32 41.5H47L51.5 49.5H55.5H59V30L57.5 25L54 22H48.5L49 31.5H35.5L35 21.5H32V10.5C38.8 8.5 39.5 4.33333 39 2.5H16Z" fill="#ACCDCD"/>
<path d="M23.8859 58.8016C24.9619 58.8016 25.8342 57.9293 25.8342 56.8533C25.8342 55.7772 24.9619 54.9049 23.8859 54.9049C22.8098 54.9049 21.9375 55.7772 21.9375 56.8533C21.9375 57.9293 22.8098 58.8016 23.8859 58.8016Z" fill="#1F3332"/>
<path d="M55.0597 58.8016C56.1358 58.8016 57.0081 57.9293 57.0081 56.8533C57.0081 55.7772 56.1358 54.9049 55.0597 54.9049C53.9836 54.9049 53.1113 55.7772 53.1113 56.8533C53.1113 57.9293 53.9836 58.8016 55.0597 58.8016Z" fill="#1F3332"/>
<path d="M55.0598 20.4837H32.9782V16.8026C36.6444 16.9255 40.3028 16.3901 43.78 15.2218C44.1073 15.1129 44.3779 14.8785 44.5323 14.5701C44.6868 14.2617 44.7124 13.9046 44.6035 13.5774C44.4947 13.2501 44.2602 12.9795 43.9519 12.825C43.6435 12.6706 43.2864 12.645 42.9591 12.7539C39.7439 13.8213 36.3638 14.3056 32.9782 14.184V11.2991C35.1412 10.9839 37.1186 9.90127 38.5494 8.24891C39.9802 6.59654 40.769 4.48467 40.7717 2.29891C40.7717 1.95442 40.6349 1.62404 40.3913 1.38044C40.1477 1.13685 39.8173 1 39.4728 1H16.0924C13.6809 1 11.3683 1.95794 9.6631 3.6631C7.95795 5.36825 7 7.68094 7 10.0924C7 12.5038 7.95795 14.8165 9.6631 16.5217C11.3683 18.2268 13.6809 19.1848 16.0924 19.1848H18.6902V49.4027C17.1013 50.5094 15.9071 52.0945 15.2817 53.9271C14.6563 55.7597 14.6323 57.7441 15.2132 59.5914C15.7942 61.4386 16.9496 63.0521 18.5114 64.1969C20.0731 65.3417 21.9596 65.958 23.8959 65.956C25.8323 65.9541 27.7175 65.334 29.277 64.1861C30.8364 63.0382 31.9887 61.4223 32.5659 59.574C33.1431 57.7256 33.1151 55.7412 32.4861 53.9099C31.857 52.0785 30.6597 50.4958 29.0685 49.3923L32.4821 42.5652H46.4636L49.8771 49.3923C48.2859 50.4958 47.0886 52.0785 46.4596 53.9099C45.8305 55.7412 45.8025 57.7256 46.3797 59.574C46.957 61.4223 48.1092 63.0382 49.6686 64.1861C51.2281 65.334 53.1133 65.9541 55.0497 65.956C56.9861 65.958 58.8725 65.3417 60.4342 64.1969C61.996 63.0521 63.1515 61.4386 63.7324 59.5914C64.3133 57.7441 64.2893 55.7597 63.6639 53.9271C63.0385 52.0945 61.8444 50.5094 60.2554 49.4027V39.8245C61.1 40.692 62.1098 41.3815 63.2253 41.8522C64.3408 42.3229 65.5392 42.5654 66.75 42.5652H70.6467C70.9912 42.5652 71.3216 42.4283 71.5652 42.1848C71.8088 41.9412 71.9456 41.6108 71.9456 41.2663V37.3695C71.9405 32.8927 70.1598 28.6007 66.9942 25.4351C63.8286 22.2695 59.5366 20.4888 55.0598 20.4837ZM36.875 23.0815H47.2663V30.875H36.875V23.0815ZM31.6793 8.79347C31.3348 8.79347 31.0045 8.93032 30.7609 9.17392C30.5173 9.41751 30.3804 9.74789 30.3804 10.0924V13.9722C27.1995 13.5743 24.1087 12.6415 21.2387 11.2133L17.3913 9.28966V3.59782H38.044C37.7428 5.06387 36.9452 6.3812 35.7858 7.32766C34.6263 8.27412 33.176 8.79183 31.6793 8.79347ZM9.59782 10.0924C9.59971 8.59577 10.1175 7.14557 11.0639 5.9862C12.0104 4.82683 13.3275 4.02919 14.7935 3.72772V16.4571C13.3275 16.1556 12.0104 15.3579 11.0639 14.1986C10.1175 13.0392 9.59971 11.589 9.59782 10.0924ZM30.3804 56.8532C30.3804 58.1377 29.9995 59.3934 29.2859 60.4614C28.5723 61.5294 27.5579 62.3619 26.3712 62.8534C25.1845 63.345 23.8787 63.4736 22.6188 63.223C21.359 62.9724 20.2018 62.3539 19.2935 61.4456C18.3852 60.5373 17.7667 59.3801 17.5161 58.1203C17.2655 56.8604 17.3941 55.5546 17.8857 54.3679C18.3772 53.1811 19.2097 52.1668 20.2777 51.4532C21.3457 50.7396 22.6014 50.3587 23.8859 50.3587C25.6077 50.3607 27.2584 51.0456 28.4759 52.2632C29.6935 53.4807 30.3784 55.1314 30.3804 56.8532ZM61.5543 56.8532C61.5543 58.1377 61.1734 59.3934 60.4598 60.4614C59.7462 61.5294 58.7318 62.3619 57.5451 62.8534C56.3584 63.345 55.0526 63.4736 53.7927 63.223C52.5329 62.9724 51.3757 62.3539 50.4674 61.4456C49.5591 60.5373 48.9406 59.3801 48.69 58.1203C48.4394 56.8604 48.568 55.5546 49.0596 54.3679C49.5511 53.1811 50.3835 52.1668 51.4516 51.4532C52.5196 50.7396 53.7753 50.3587 55.0598 50.3587C56.7816 50.3607 58.4323 51.0456 59.6498 52.2632C60.8673 53.4807 61.5523 55.1314 61.5543 56.8532ZM57.6576 48.1505C55.8743 47.6127 53.968 47.6422 52.2022 48.2349L48.4353 40.6922C48.3278 40.474 48.1613 40.2905 47.9546 40.1623C47.7479 40.0342 47.5095 39.9666 47.2663 39.9674H31.6793C31.438 39.9673 31.2013 40.0344 30.996 40.1613C30.7906 40.2882 30.6247 40.4697 30.5168 40.6857L26.7435 48.2285C24.977 47.6379 23.0707 47.6106 21.288 48.1505V17.8859C21.288 17.5414 21.1512 17.211 20.9076 16.9674C20.664 16.7238 20.3336 16.5869 19.9891 16.5869H17.3913V12.194L20.0762 13.5371C23.3053 15.1572 26.7923 16.2016 30.3804 16.6233V21.7826C30.3804 22.1271 30.5173 22.4575 30.7609 22.7011C31.0045 22.9447 31.3348 23.0815 31.6793 23.0815H34.2772V32.1739C34.2772 32.5184 34.414 32.8488 34.6576 33.0924C34.9012 33.336 35.2316 33.4728 35.5761 33.4728H48.5652C48.9097 33.4728 49.2401 33.336 49.4837 33.0924C49.7273 32.8488 49.8641 32.5184 49.8641 32.1739V23.0815H51.163C52.8849 23.0836 54.5356 23.7685 55.7531 24.986C56.9706 26.2035 57.6555 27.8542 57.6576 29.5761V48.1505ZM69.3478 39.9674H66.75C65.0281 39.9653 63.3774 39.2804 62.1599 38.0629C60.9424 36.8454 60.2575 35.1946 60.2554 33.4728V29.5761C60.2564 27.2558 59.3659 25.0237 57.768 23.3413C61.0255 23.9739 63.9618 25.7192 66.0742 28.2783C68.1867 30.8374 69.3439 34.0512 69.3478 37.3695V39.9674Z" fill="#1F3332"/>
</g>
</svg>
