<svg width="88" height="52" viewBox="0 0 88 52" fill="none" xmlns="http://www.w3.org/2000/svg">
<mask id="mask0_792_10815" style="mask-type:alpha" maskUnits="userSpaceOnUse" x="0" y="0" width="88" height="52">
<rect width="88" height="52" fill="#D9D9D9"/>
</mask>
<g mask="url(#mask0_792_10815)">
<path d="M1.14981 40.9477C1.45377 40.4976 1.81049 40.3911 4.7322 39.7265C10.0685 38.5128 12.6414 38.9943 17.7325 41.9504C19.6612 43.0609 19.949 44.2144 18.3794 44.5714C17.655 44.7361 16.7835 44.4773 14.2797 43.2944C10.9603 41.7638 8.72994 41.56 3.87208 42.3094C1.64181 42.6643 1.05569 42.5436 0.890931 41.8192C0.841504 41.6019 0.933628 41.2254 1.14981 40.9477Z" fill="#1C1C1C"/>
<path d="M86.6834 37.2704C86.3795 36.8204 86.0228 36.7138 83.1011 36.0493C77.7647 34.8356 75.1919 35.3171 70.1007 38.2732C68.1721 39.3837 67.8843 40.5372 69.4538 40.8941C70.1782 41.0589 71.0497 40.8 73.5536 39.6172C76.8729 38.0866 79.1033 37.8828 83.9612 38.6321C86.1914 38.987 86.7776 38.8663 86.9423 38.1419C86.9917 37.9246 86.8996 37.5482 86.6834 37.2704Z" fill="#1C1C1C"/>
<path d="M11.0259 32.7845C11.2134 31.5991 12.3011 31.5802 14.1441 32.761C16.4263 34.1974 18.3781 36.1914 19.0282 37.8212C19.4224 38.7728 19.2732 39.5686 18.7179 39.6949C18.2349 39.8047 18.0165 39.6258 16.7792 38.2057C15.6068 36.8471 11.6176 33.488 11.2554 33.5704C10.936 33.6176 10.9085 33.4969 11.0259 32.7845Z" fill="#1C1C1C"/>
<path d="M76.8071 29.1068C76.6196 27.9213 75.5319 27.9025 73.6889 29.0832C71.4067 30.5196 69.4549 32.5137 68.8048 34.1435C68.4106 35.095 68.5598 35.8909 69.1152 36.0172C69.5981 36.127 69.8165 35.9481 71.0538 34.528C72.2262 33.1694 76.2154 29.8103 76.5776 29.8926C76.897 29.9399 76.9245 29.8191 76.8071 29.1068Z" fill="#1C1C1C"/>
<path fill-rule="evenodd" clip-rule="evenodd" d="M43.1693 1.0836C44.2357 2.26037 47.1777 10.2403 50.5609 21.3093C51.2228 23.3686 51.7744 25.0234 51.848 25.0234C51.9215 25.0234 52.657 23.8099 53.4292 22.3022C55.9666 17.6687 59.0924 13.3661 62.5124 9.68871C64.2776 7.77646 66.1163 5.75389 66.5943 5.23906C67.5872 4.02552 68.5433 3.91519 69.2053 4.98163C69.6833 5.68034 69.6465 5.93776 68.9111 8.54871C66.6678 16.2345 65.4543 24.5086 64.9395 35.2834C64.5718 44.2562 64.4982 44.624 63.6156 45.4698C61.9608 47.0143 60.0118 47.382 48.8692 48.3749C40.6319 49.0736 32.9829 50.0297 30.1513 50.6917C28.0184 51.2065 27.3197 51.0962 27.5772 50.2136C27.7243 49.7355 27.6507 49.6988 26.6946 49.8459C24.5249 50.2136 24.5249 50.2136 24.4514 42.4911C24.4146 36.9014 24.2675 34.9892 23.7159 32.3415C22.8333 28.0757 21.2153 23.4422 18.5675 17.4112C16.3243 12.41 16.0301 11.1964 16.8759 10.5345C17.7585 9.79902 18.7882 10.0932 21.1417 11.8216C27.3933 16.308 32.9462 21.7506 34.932 25.3544C36.0719 27.377 36.219 27.5976 36.3661 26.8989C36.7338 25.5015 39.0506 8.54871 39.4184 5.01841C39.6758 2.66488 39.9332 1.37779 40.2642 1.01005C40.9629 0.237797 42.397 0.274576 43.1693 1.0836ZM42.9119 10.0932C42.8016 9.9829 42.3603 12.2997 41.9558 15.3151C41.588 18.2938 40.9261 23.1848 40.4848 26.0899C40.0803 29.0686 39.7126 32.1208 39.7126 32.9298C39.7126 34.8421 38.9771 35.835 37.5061 35.835C36.1087 35.835 35.1894 34.7318 32.5784 29.6202C30.6662 25.9796 30.1145 25.1705 27.3197 22.2654C25.5913 20.5002 24.0836 19.0293 23.9733 19.0293C23.8262 19.0293 24.2307 20.4267 24.8926 22.0815C27.3933 28.4066 28.3862 33.7389 28.3862 40.7627C28.3862 44.8814 28.4229 45.5433 28.8274 45.3962C33.7184 43.5575 40.3745 41.7188 45.0816 40.9834C49.3841 40.2846 56.224 39.8066 58.6143 40.0272L60.7105 40.2111L60.7473 33.3711C60.7473 26.2002 61.0047 23.8467 62.7331 16.4551L63.3214 13.8442L62.4021 14.9474C60.1221 17.5951 56.2976 24.8028 54.8267 29.1054C54.3118 30.5395 53.6866 32.0473 53.4292 32.3415C52.7305 33.077 51.0022 33.1137 50.377 32.3415C49.899 31.7899 47.2144 23.957 45.8906 19.1764C45.4493 17.6319 44.6771 14.9842 44.1254 13.3661C43.6106 11.7113 43.0222 10.2771 42.9119 10.0932ZM44.5299 44.4401C40.5951 45.1388 29.3423 48.522 29.71 48.853C29.7468 48.8897 30.85 48.6691 32.1003 48.3381C35.5939 47.4556 44.9712 45.9478 50.5977 45.3962C62.2918 44.2195 61.7034 44.3298 61.4092 43.484C61.0047 42.5646 51.7744 43.0795 44.5299 44.4401Z" fill="#1C1C1C"/>
<path d="M59.1036 9.83187C57.0982 11.0695 54.7866 14.4701 55.313 15.403C55.422 15.596 55.6017 15.7266 55.7805 15.7617C56.0289 15.7885 56.1122 15.7295 56.3652 15.2946C57.4365 13.4351 58.2459 12.3894 59.5585 11.1265C60.2644 10.461 60.4591 10.0919 60.2991 9.78974C60.1051 9.46462 59.6857 9.47298 59.1036 9.83187Z" fill="#1C1C1C"/>
<path d="M29.6173 16.0722C31.7497 17.075 34.4311 20.1924 34.0135 21.1789C33.9271 21.383 33.7633 21.5331 33.5896 21.5882C33.3458 21.6429 33.2564 21.5937 32.9559 21.1902C31.6812 19.4638 30.7586 18.5162 29.3117 17.41C28.535 16.8285 28.2999 16.4839 28.4246 16.1655C28.5807 15.8205 28.9983 15.7814 29.6173 16.0722Z" fill="#1C1C1C"/>
</g>
</svg>
