<svg width="78" height="67" viewBox="0 0 78 67" fill="none" xmlns="http://www.w3.org/2000/svg">
<mask id="mask0_792_11467" style="mask-type:alpha" maskUnits="userSpaceOnUse" x="0" y="0" width="78" height="67">
<rect width="78" height="67" fill="white"/>
</mask>
<g mask="url(#mask0_792_11467)">
<path d="M14.5 34L15 63C20 65 22.4298 64 38.5 64C52 64 55 65 62.5 64L63.5 32.5C62.5 25.6667 56.2 11.9 39 11.5C21.8 11.1 15.5 26.3334 14.5 34Z" fill="#ACCDCD"/>
<path d="M51.5 51H27.5C25.9 53 28.8333 56.1667 30.5 57.5C31.6666 58.1667 35.8 59.3 43 58.5C50.2 57.7 51.6666 53.1667 51.5 51Z" fill="white"/>
<path d="M3.5 13.5C11.5 3.10001 20.8333 10.8333 24.5 16L19 21C15 14.6 7.33333 14.3333 4 15L3.5 13.5Z" fill="#ACCDCD"/>
<path d="M75 13.5C67 3.10001 57.6667 10.8333 54 16L59.5 21C63.5 14.6 71.1667 14.3333 74.5 15L75 13.5Z" fill="#ACCDCD"/>
<path d="M51.4444 27H26.5556C26.143 27 25.7473 27.158 25.4556 27.4393C25.1639 27.7206 25 28.1022 25 28.5C25 28.8978 25.1639 29.2794 25.4556 29.5607C25.7473 29.842 26.143 30 26.5556 30H51.4444C51.857 30 52.2527 29.842 52.5444 29.5607C52.8361 29.2794 53 28.8978 53 28.5C53 28.1022 52.8361 27.7206 52.5444 27.4393C52.2527 27.158 51.857 27 51.4444 27Z" fill="#1F3332"/>
<path d="M73.9248 10.1613C69.6041 5.79908 61.9544 6.08023 56.1388 10.7977C54.926 11.7739 53.8517 12.9088 52.9451 14.1714C51.8763 13.4857 50.7579 12.8795 49.5993 12.3576C49.619 12.0976 49.6373 11.8376 49.6373 11.5807C49.6373 10.1912 49.3619 8.81532 48.8269 7.53162C48.2919 6.24791 47.5078 5.08151 46.5192 4.099C45.5307 3.1165 44.3571 2.33713 43.0655 1.8054C41.7739 1.27368 40.3895 1 38.9915 1C37.5935 1 36.2092 1.27368 34.9176 1.8054C33.626 2.33713 32.4524 3.1165 31.4638 4.099C30.4753 5.08151 29.6911 6.24791 29.1561 7.53162C28.6211 8.81532 28.3458 10.1912 28.3458 11.5807C28.3458 11.8376 28.364 12.0976 28.3838 12.3576C27.2252 12.8796 26.1069 13.4859 25.038 14.1714C24.5156 13.4558 23.9433 12.7775 23.3256 12.1414C18.1228 6.76344 9.21234 4.97077 4.0674 10.1598C-1.14749 15.4093 0.814366 24.3077 6.00188 29.5496C8.01337 31.5829 10.5006 33.0889 13.241 33.9331C13.1969 34.5377 13.1467 35.1423 13.1467 35.7696V61.4654C13.1467 62.6681 13.6274 63.8215 14.483 64.6719C15.3386 65.5222 16.4991 66 17.7092 66H60.283C61.4931 66 62.6535 65.5222 63.5092 64.6719C64.3648 63.8215 64.8455 62.6681 64.8455 61.4654V35.7696C64.8455 35.1498 64.7953 34.5422 64.7527 33.9331C67.4906 33.0913 69.9744 31.5847 71.9796 29.5496C77.3451 24.1475 79.0423 15.3141 73.9248 10.1613ZM58.052 13.1481C62.6525 9.41011 68.5456 9.03828 71.7591 12.2835C72.0801 12.6083 72.3693 12.9625 72.623 13.3416C67.4689 12.4861 62.0943 14.9907 58.531 18.9992C57.5787 17.8954 56.5348 16.8731 55.4103 15.9429C56.1613 14.8982 57.0498 13.9583 58.052 13.1481ZM64.1626 29.9955C63.4641 26.9518 62.2105 24.0609 60.464 21.466C62.0851 19.3416 64.3101 17.7494 66.8514 16.8952C68.9015 20.5636 67.8004 26.0051 64.1626 29.9955ZM38.9961 4.02758C40.9413 4.03296 42.8103 4.78009 44.2175 6.11487C45.6247 7.44966 46.4629 9.27029 46.5591 11.2013C41.63 9.69781 36.3606 9.69781 31.4315 11.2013C31.5281 9.27016 32.3666 7.44952 33.7741 6.11477C35.1816 4.78002 37.0507 4.03294 38.9961 4.02758ZM6.23305 12.282C10.175 8.30368 17.1693 10.1432 21.1569 14.247C21.6718 14.7746 22.1485 15.3378 22.5834 15.9323C21.458 16.8631 20.4136 17.8865 19.4611 18.9917C15.9633 15.0617 10.5902 12.4725 5.3677 13.3355C5.6227 12.9585 5.9124 12.6058 6.23305 12.282ZM13.8265 30.0076C10.1765 26.0081 9.07698 20.5636 11.1392 16.8967C13.6545 17.7991 15.8741 19.367 17.5586 21.4312C15.795 24.0379 14.5299 26.9452 13.8265 30.0076ZM4.09325 16.8574C5.34517 16.3285 6.70944 16.1161 8.06412 16.2392C7.30196 18.1071 6.96298 20.1189 7.07127 22.1317C7.17956 24.1445 7.73246 26.109 8.6907 27.8855C8.51732 27.7267 8.32874 27.5831 8.16297 27.4214C6.74963 26.0634 5.65293 24.4141 4.95007 22.5895C4.2472 20.7648 3.95526 18.8093 4.09478 16.8604L4.09325 16.8574ZM60.283 62.977H17.7092C17.3058 62.977 16.919 62.8177 16.6338 62.5342C16.3486 62.2508 16.1883 61.8663 16.1883 61.4654C16.1936 56.2556 18.2782 51.2606 21.9848 47.5767C25.6914 43.8928 30.7171 41.8208 35.959 41.8156H42.0423C47.2841 41.8212 52.3095 43.8933 56.016 47.5771C59.7225 51.261 61.8073 56.2557 61.813 61.4654C61.813 61.6647 61.7733 61.862 61.6963 62.046C61.6193 62.2299 61.5065 62.397 61.3643 62.5375C61.2221 62.6779 61.0534 62.7891 60.8678 62.8645C60.6822 62.9399 60.4835 62.9782 60.283 62.977ZM42.0332 38.7926H35.9499C31.9355 38.7966 27.9933 39.8538 24.5218 41.8574C21.0503 43.8609 18.1725 46.7398 16.1792 50.2031V35.7696C16.1185 32.7546 16.6636 29.7578 17.7826 26.9548C18.9015 24.1517 20.5718 21.5987 22.6957 19.4451C24.8196 17.2916 27.3545 15.5807 30.1518 14.4128C32.9491 13.2449 35.9528 12.6433 38.987 12.6433C42.0211 12.6433 45.0248 13.2449 47.8221 14.4128C50.6195 15.5807 53.1543 17.2916 55.2782 19.4451C57.4021 21.5987 59.0724 24.1517 60.1914 26.9548C61.3103 29.7578 61.8554 32.7546 61.7947 35.7696V50.2031C59.8018 46.7422 56.9257 43.865 53.4567 41.8616C49.9876 39.8583 46.0483 38.7997 42.0362 38.7926H42.0332ZM69.2848 27.8885C70.2421 26.1119 70.7953 24.148 70.9052 22.1356C71.015 20.1231 70.6789 18.1113 69.9205 16.2422C71.2755 16.1223 72.6395 16.3346 73.8928 16.8604C74.0301 18.8105 73.7358 20.7668 73.0306 22.5916C72.3253 24.4165 71.2264 26.0656 69.811 27.4229C69.6467 27.5907 69.4596 27.7298 69.2848 27.8885Z" fill="#1F3332"/>
<path d="M51.4444 49H26.5556C26.143 49 25.7473 49.1656 25.4556 49.4603C25.1639 49.755 25 50.1547 25 50.5714C25 53.072 25.9833 55.4702 27.7337 57.2384C29.484 59.0066 31.858 60 34.3333 60H43.6667C46.1413 59.9975 48.5138 59.0033 50.2636 57.2357C52.0134 55.468 52.9975 53.0713 53 50.5714C53 50.1547 52.8361 49.755 52.5444 49.4603C52.2527 49.1656 51.857 49 51.4444 49ZM43.6667 56.8571H34.3333C32.9542 56.8568 31.6142 56.3936 30.5239 55.5402C29.4337 54.6869 28.655 53.4919 28.3102 52.1429H49.6929C49.3466 53.4913 48.5673 54.6857 47.477 55.5388C46.3868 56.3919 45.0457 56.8555 43.6667 56.8571Z" fill="#1F3332"/>
</g>
</svg>
