<svg width="78" height="67" viewBox="0 0 78 67" fill="none" xmlns="http://www.w3.org/2000/svg">
<mask id="mask0_792_11481" style="mask-type:alpha" maskUnits="userSpaceOnUse" x="0" y="0" width="78" height="67">
<rect width="78" height="67" fill="white"/>
</mask>
<g mask="url(#mask0_792_11481)">
<rect x="8" y="33" width="28" height="28" rx="3" fill="#ACCDCD"/>
<rect x="43" y="33" width="28" height="28" rx="3" fill="#ACCDCD"/>
<rect x="26" y="6" width="27" height="28" rx="3" fill="#ACCDCD"/>
<path d="M68.0489 32.2772H54.1713C54.3251 31.8612 54.406 31.4217 54.4103 30.9782V8.89674C54.4103 7.86326 53.9998 6.87211 53.269 6.14133C52.5382 5.41055 51.547 5 50.5136 5H28.4321C27.3986 5 26.4074 5.41055 25.6766 6.14133C24.9459 6.87211 24.5353 7.86326 24.5353 8.89674V30.9782C24.5396 31.4217 24.6205 31.8612 24.7743 32.2772H10.8967C9.86326 32.2772 8.87211 32.6877 8.14133 33.4185C7.41055 34.1493 7 35.1404 7 36.1739V58.2554C7 59.2889 7.41055 60.28 8.14133 61.0108C8.87211 61.7416 9.86326 62.1521 10.8967 62.1521H32.9782C34.0117 62.1521 35.0029 61.7416 35.7337 61.0108C36.4644 60.28 36.875 59.2889 36.875 58.2554V36.1739C36.8707 35.7304 36.7898 35.291 36.636 34.875H42.3096C42.1558 35.291 42.0749 35.7304 42.0706 36.1739V58.2554C42.0706 59.2889 42.4812 60.28 43.212 61.0108C43.9427 61.7416 44.9339 62.1521 45.9674 62.1521H68.0489C69.0824 62.1521 70.0735 61.7416 70.8043 61.0108C71.5351 60.28 71.9456 59.2889 71.9456 58.2554V36.1739C71.9456 35.1404 71.5351 34.1493 70.8043 33.4185C70.0735 32.6877 69.0824 32.2772 68.0489 32.2772ZM27.1331 30.9782V8.89674C27.1331 8.55224 27.27 8.22186 27.5136 7.97827C27.7572 7.73467 28.0876 7.59782 28.4321 7.59782H50.5136C50.8581 7.59782 51.1884 7.73467 51.432 7.97827C51.6756 8.22186 51.8125 8.55224 51.8125 8.89674V30.9782C51.8125 31.3227 51.6756 31.6531 51.432 31.8967C51.1884 32.1403 50.8581 32.2772 50.5136 32.2772H28.4321C28.0876 32.2772 27.7572 32.1403 27.5136 31.8967C27.27 31.6531 27.1331 31.3227 27.1331 30.9782ZM34.2772 36.1739V58.2554C34.2772 58.5999 34.1403 58.9303 33.8967 59.1739C33.6531 59.4175 33.3227 59.5543 32.9782 59.5543H10.8967C10.5522 59.5543 10.2219 59.4175 9.97827 59.1739C9.73467 58.9303 9.59782 58.5999 9.59782 58.2554V36.1739C9.59782 35.8294 9.73467 35.499 9.97827 35.2554C10.2219 35.0118 10.5522 34.875 10.8967 34.875H32.9782C33.3227 34.875 33.6531 35.0118 33.8967 35.2554C34.1403 35.499 34.2772 35.8294 34.2772 36.1739ZM69.3478 58.2554C69.3478 58.5999 69.2109 58.9303 68.9674 59.1739C68.7238 59.4175 68.3934 59.5543 68.0489 59.5543H45.9674C45.6229 59.5543 45.2925 59.4175 45.0489 59.1739C44.8053 58.9303 44.6685 58.5999 44.6685 58.2554V36.1739C44.6685 35.8294 44.8053 35.499 45.0489 35.2554C45.2925 35.0118 45.6229 34.875 45.9674 34.875H68.0489C68.3934 34.875 68.7238 35.0118 68.9674 35.2554C69.2109 35.499 69.3478 35.8294 69.3478 36.1739V58.2554Z" fill="#1F3332"/>
<path d="M33.8875 26.8829C34.2093 27.0054 34.5665 26.9951 34.8807 26.8544C35.1949 26.7136 35.4404 26.4538 35.5631 26.1322L36.4594 23.7785H42.5019L43.3891 26.1283C43.5143 26.4455 43.7593 26.7008 44.0712 26.8389C44.383 26.977 44.7367 26.987 45.0558 26.8666C45.3749 26.7462 45.6339 26.5051 45.7767 26.1953C45.9196 25.8856 45.9349 25.5321 45.8193 25.2112L40.9679 12.3663C40.8481 12.0743 40.6439 11.8247 40.3816 11.6494C40.1192 11.474 39.8105 11.3808 39.4949 11.3817C39.1742 11.3829 38.8612 11.4807 38.5969 11.6624C38.3325 11.844 38.129 12.1011 38.0129 12.4001L33.1355 25.2073C33.0131 25.5293 33.0235 25.8866 33.1646 26.2009C33.3056 26.5151 33.5656 26.7604 33.8875 26.8829ZM39.4949 15.8084L41.5212 21.1807H37.4453L39.4949 15.8084Z" fill="#1F3332"/>
<path d="M24.5055 46.8173C25.0726 46.0791 25.3816 45.1751 25.3849 44.2442C25.3849 43.1073 24.9333 42.0171 24.1294 41.2132C23.3256 40.4094 22.2353 39.9578 21.0985 39.9578H17.3316C16.9871 39.9578 16.6568 40.0946 16.4132 40.3382C16.1696 40.5818 16.0327 40.9122 16.0327 41.2567V54.2458C16.0327 54.5903 16.1696 54.9207 16.4132 55.1643C16.6568 55.4079 16.9871 55.5447 17.3316 55.5447C17.3316 55.5447 20.8023 55.5291 21.7583 55.5291C22.7774 55.5305 23.7704 55.2067 24.5927 54.6048C25.4151 54.0029 26.0239 53.1543 26.3307 52.1825C26.6374 51.2106 26.6261 50.1663 26.2983 49.2013C25.9705 48.2364 25.3434 47.4012 24.5081 46.8173H24.5055ZM21.0972 42.5556C21.545 42.5556 21.9745 42.7335 22.2912 43.0502C22.6079 43.3668 22.7858 43.7963 22.7858 44.2442C22.7858 44.692 22.6079 45.1215 22.2912 45.4382C21.9745 45.7549 21.545 45.9328 21.0972 45.9328H19.7983H18.6227V42.5556H21.0972ZM21.7557 52.93C21.1842 52.93 19.7151 52.93 18.6227 52.9391V48.541H19.8437H21.7557C22.3386 48.541 22.8976 48.7725 23.3098 49.1847C23.7219 49.5968 23.9535 50.1559 23.9535 50.7387C23.9535 51.3216 23.7219 51.8806 23.3098 52.2928C22.8976 52.7049 22.3386 52.9365 21.7557 52.9365V52.93Z" fill="#1F3332"/>
<path d="M60.6581 51.5632C60.535 51.7088 60.4022 51.846 60.2606 51.9737C59.5132 52.6219 58.549 52.9646 57.5602 52.9336C56.7482 52.9332 55.9476 52.7425 55.2227 52.3768C54.4977 52.0111 53.8685 51.4805 53.3857 50.8277C52.9028 50.1749 52.5796 49.4181 52.4421 48.6178C52.3046 47.8176 52.3566 46.9962 52.5939 46.2197C52.8311 45.4432 53.2471 44.733 53.8084 44.1463C54.3697 43.5596 55.0607 43.1126 55.8259 42.8412C56.5912 42.5697 57.4094 42.4814 58.215 42.5834C59.0206 42.6853 59.791 42.9746 60.4645 43.4281C60.6057 43.5284 60.7655 43.5993 60.9345 43.6369C61.1035 43.6745 61.2783 43.6779 61.4487 43.647C61.619 43.616 61.7814 43.5513 61.9264 43.4567C62.0714 43.3621 62.196 43.2394 62.2929 43.0959C62.3898 42.9524 62.457 42.791 62.4907 42.6212C62.5243 42.4514 62.5236 42.2765 62.4887 42.107C62.4537 41.9374 62.3853 41.7765 62.2873 41.6338C62.1893 41.491 62.0637 41.3693 61.918 41.2758C60.908 40.5936 59.7521 40.1578 58.5431 40.0034C57.3341 39.8489 56.1058 39.9802 54.9568 40.3867C53.8077 40.7931 52.77 41.4634 51.927 42.3436C51.084 43.2239 50.4592 44.2896 50.1028 45.4551C49.7465 46.6206 49.6684 47.8535 49.8749 49.0547C50.0815 50.2559 50.5668 51.3919 51.2921 52.3714C52.0173 53.351 52.9622 54.1468 54.0508 54.6949C55.1394 55.243 56.3414 55.5282 57.5602 55.5275C59.1858 55.558 60.7643 54.9808 61.9869 53.9091C62.2233 53.6997 62.4438 53.4731 62.6467 53.231C62.8684 52.9673 62.9762 52.6263 62.9465 52.2831C62.9168 51.9399 62.7519 51.6225 62.4882 51.4009C62.2245 51.1792 61.8836 51.0713 61.5403 51.1011C61.1971 51.1308 60.8798 51.2956 60.6581 51.5593V51.5632Z" fill="#1F3332"/>
</g>
</svg>
