<svg width="78" height="67" viewBox="0 0 78 67" fill="none" xmlns="http://www.w3.org/2000/svg">
<mask id="mask0_792_11477" style="mask-type:alpha" maskUnits="userSpaceOnUse" x="0" y="0" width="78" height="67">
<rect width="78" height="67" fill="white"/>
</mask>
<g mask="url(#mask0_792_11477)">
<path fill-rule="evenodd" clip-rule="evenodd" d="M30.5 64.5C30.3333 60.8333 27.8 52.6 19 49V22C20.3333 20.8333 23 17.1 23 11.5V2.5H30.5V10.5C30.6667 12.8333 32.4 17.6 38 18C43.6 18.4 45.6667 13.1667 46 10.5V2.5H54V12.5C54.3333 14.8333 55.6 20 58 22V49C54 50.6667 46 56.1 46 64.5H30.5ZM38.5 45.5L33.5 44L30.5 39.5V33L32 30.5L29 29.5L27 27.5V24L29.5 22.5H32L34.5 24V27.5L38 28H42.5L43.5 24.5L46 22L49.5 23.5L50.5 26.5L49.5 29L46.5 30.5L47 32.5L48 37.5L46.5 41L43.5 44L38.5 45.5Z" fill="#ACCDCD"/>
<path d="M55.6685 2.29891C55.6685 1.95442 55.5316 1.62404 55.288 1.38044C55.0444 1.13685 54.714 1 54.3695 1H46.5761C46.2316 1 45.9012 1.13685 45.6576 1.38044C45.414 1.62404 45.2772 1.95442 45.2772 2.29891V10.0924C45.2772 11.8149 44.5929 13.4668 43.3749 14.6847C42.157 15.9027 40.5051 16.5869 38.7826 16.5869C37.0601 16.5869 35.4082 15.9027 34.1902 14.6847C32.9723 13.4668 32.288 11.8149 32.288 10.0924V2.29891C32.288 1.95442 32.1512 1.62404 31.9076 1.38044C31.664 1.13685 31.3336 1 30.9891 1H23.1956C22.8512 1 22.5208 1.13685 22.2772 1.38044C22.0336 1.62404 21.8967 1.95442 21.8967 2.29891C21.8967 13.8592 21.8967 17.3481 18.3806 20.8643C18.137 21.1078 18.0001 21.4381 18 21.7826V49.0598C18.0002 49.3323 18.0861 49.5978 18.2456 49.8188C18.405 50.0398 18.6299 50.205 18.8885 50.2911C18.9963 50.3288 29.6902 54.0151 29.6902 64.6467C29.6902 64.9912 29.8271 65.3216 30.0707 65.5652C30.3142 65.8088 30.6446 65.9456 30.9891 65.9456H46.5761C46.9206 65.9456 47.2509 65.8088 47.4945 65.5652C47.7381 65.3216 47.875 64.9912 47.875 64.6467C47.875 54.0593 58.239 50.4405 58.6793 50.2911C58.9374 50.2046 59.1617 50.0391 59.3207 49.8182C59.4796 49.5972 59.5652 49.3319 59.5652 49.0598V21.7826C59.5651 21.4381 59.4282 21.1078 59.1846 20.8643C55.6685 17.3481 55.6685 13.8592 55.6685 2.29891ZM56.9674 48.183C54.2202 49.3819 46.011 53.7501 45.3226 63.3478H32.2426C31.5541 53.7501 23.345 49.3819 20.5978 48.183V22.3022C24.3426 18.3054 24.4881 14.0164 24.4946 3.59782H29.6902V10.0924C29.6902 12.5038 30.6482 14.8165 32.3533 16.5217C34.0585 18.2268 36.3711 19.1848 38.7826 19.1848C41.194 19.1848 43.5067 18.2268 45.2119 16.5217C46.917 14.8165 47.875 12.5038 47.875 10.0924V3.59782H53.0706C53.0771 14.0216 53.2226 18.3106 56.9674 22.3022V48.183Z" fill="#1F3332"/>
<path d="M46.576 20.4837C45.1981 20.4837 43.8765 21.0311 42.9022 22.0055C41.9278 22.9798 41.3804 24.3014 41.3804 25.6793C41.3804 25.8001 41.4077 25.9118 41.4155 26.03C39.6913 25.5625 37.8738 25.5625 36.1497 26.03C36.1575 25.9118 36.1847 25.8001 36.1847 25.6793C36.1864 24.6991 35.9108 23.7385 35.3897 22.9082C34.8686 22.078 34.1233 21.4122 33.2398 20.9875C32.3564 20.5629 31.3708 20.3969 30.397 20.5086C29.4232 20.6203 28.5009 21.0052 27.7365 21.6188C26.9721 22.2324 26.3969 23.0498 26.0774 23.9764C25.7578 24.903 25.7068 25.9012 25.9304 26.8555C26.154 27.8099 26.643 28.6815 27.3409 29.3698C28.0389 30.0581 28.9172 30.5348 29.8746 30.7451C28.9276 32.3218 28.416 34.1217 28.3921 35.9608C28.3683 37.7999 28.833 39.6125 29.7389 41.2132C30.6447 42.814 31.9592 44.1456 33.5481 45.0722C35.1369 45.9987 36.9433 46.4869 38.7826 46.4869C40.6219 46.4869 42.4282 45.9987 44.0171 45.0722C45.606 44.1456 46.9205 42.814 47.8263 41.2132C48.7321 39.6125 49.1968 37.7999 49.173 35.9608C49.1491 34.1217 48.6376 32.3218 47.6905 30.7451C48.9328 30.4622 50.0277 29.7326 50.7673 28.6952C51.5069 27.6578 51.8395 26.3848 51.7019 25.1182C51.5644 23.8516 50.9662 22.6797 50.0212 21.8252C49.0761 20.9708 47.8501 20.4933 46.576 20.4837ZM28.3913 25.6793C28.3913 25.1655 28.5436 24.6633 28.8291 24.2361C29.1145 23.8089 29.5203 23.4759 29.995 23.2793C30.4696 23.0826 30.992 23.0312 31.4959 23.1314C31.9998 23.2317 32.4627 23.4791 32.826 23.8424C33.1894 24.2057 33.4368 24.6686 33.537 25.1725C33.6372 25.6765 33.5858 26.1988 33.3892 26.6735C33.1926 27.1482 32.8596 27.5539 32.4324 27.8393C32.0052 28.1248 31.5029 28.2772 30.9891 28.2772C30.3001 28.2772 29.6393 28.0035 29.1522 27.5163C28.665 27.0291 28.3913 26.3683 28.3913 25.6793ZM40.0815 43.7472V39.9674C40.426 39.9674 40.7564 39.8305 41 39.5869C41.2435 39.3433 41.3804 39.013 41.3804 38.6685C41.3804 38.324 41.2435 37.9936 41 37.75C40.7564 37.5064 40.426 37.3695 40.0815 37.3695H37.4837C37.1392 37.3695 36.8088 37.5064 36.5652 37.75C36.3216 37.9936 36.1847 38.324 36.1847 38.6685C36.1847 39.013 36.3216 39.3433 36.5652 39.5869C36.8088 39.8305 37.1392 39.9674 37.4837 39.9674V43.7472C35.5569 43.4215 33.8227 42.3839 32.6249 40.8399C31.4271 39.2959 30.853 37.3583 31.0164 35.411C31.1798 33.4637 32.0688 31.6489 33.5072 30.3261C34.9456 29.0034 36.8284 28.2693 38.7826 28.2693C40.7367 28.2693 42.6195 29.0034 44.0579 30.3261C45.4963 31.6489 46.3853 33.4637 46.5487 35.411C46.7122 37.3583 46.1381 39.2959 44.9403 40.8399C43.7424 42.3839 42.0083 43.4215 40.0815 43.7472ZM46.576 28.2772C46.0622 28.2772 45.56 28.1248 45.1328 27.8393C44.7056 27.5539 44.3726 27.1482 44.176 26.6735C43.9793 26.1988 43.9279 25.6765 44.0281 25.1725C44.1284 24.6686 44.3758 24.2057 44.7391 23.8424C45.1024 23.4791 45.5653 23.2317 46.0692 23.1314C46.5732 23.0312 47.0955 23.0826 47.5702 23.2793C48.0449 23.4759 48.4506 23.8089 48.7361 24.2361C49.0215 24.6633 49.1739 25.1655 49.1739 25.6793C49.1739 26.3683 48.9002 27.0291 48.413 27.5163C47.9258 28.0035 47.265 28.2772 46.576 28.2772Z" fill="#1F3332"/>
</g>
</svg>
