<svg width="64" height="64" viewBox="0 0 64 64" fill="none" xmlns="http://www.w3.org/2000/svg">
<path d="M31.5416 39.3262C39.8888 39.3262 46.6555 32.5595 46.6555 24.2123C46.6555 15.8651 39.8888 9.09839 31.5416 9.09839C23.1945 9.09839 16.4277 15.8651 16.4277 24.2123C16.4277 32.5595 23.1945 39.3262 31.5416 39.3262Z" fill="#ACCDCD"/>
<path d="M50.1726 14.1102C48.7547 11.5397 46.8837 9.32779 44.6117 7.53578C42.2526 5.67497 39.579 4.36414 36.6652 3.64003C36.0681 3.49141 35.4644 3.85524 35.3162 4.45198C35.1679 5.04872 35.5315 5.6527 36.1281 5.801C41.2978 7.08577 45.5933 10.4187 48.2224 15.1847C51.7509 21.5981 51.2074 29.6388 46.8376 35.6692L31.3866 56.9913L15.9357 35.6689C11.5659 29.6386 11.0223 21.5979 14.5502 15.1855C17.1803 10.4185 21.4757 7.08555 26.6451 5.80077C27.2419 5.65248 27.6054 5.0485 27.4571 4.45176C27.3087 3.85513 26.7053 3.49152 26.1081 3.63981C23.1944 4.36392 20.5207 5.67464 18.1615 7.53556C15.8897 9.32757 14.0188 11.5394 12.5999 14.111C10.6496 17.6559 9.76847 21.6832 10.0519 25.7573C10.3333 29.8004 11.7443 33.6795 14.1326 36.9754L30.485 59.5419C30.6944 59.8309 31.0296 60.0019 31.3866 60.0019C31.7434 60.0019 32.0787 59.8308 32.2881 59.5419L48.6405 36.9754C51.0288 33.6795 52.4399 29.8004 52.7211 25.7573C53.0045 21.6834 52.1236 17.6561 50.1726 14.1102Z" fill="#1F3332"/>
<path d="M31.3863 5.22665C32.0011 5.22665 32.4996 4.7282 32.4996 4.11332C32.4996 3.49845 32.0011 3 31.3863 3C30.7714 3 30.2729 3.49845 30.2729 4.11332C30.2729 4.7282 30.7714 5.22665 31.3863 5.22665Z" fill="#1F3332"/>
<path d="M15.0103 24.3863C15.0103 33.4163 22.3566 40.7627 31.3866 40.7627C40.4164 40.7627 47.7629 33.4163 47.7629 24.3863C47.7629 15.3564 40.4165 8.01001 31.3866 8.01001C22.3566 8.01001 15.0103 15.3564 15.0103 24.3863ZM45.5363 24.3863C45.5363 32.1885 39.1888 38.536 31.3866 38.536C23.5844 38.536 17.2369 32.1885 17.2369 24.3863C17.2369 16.5842 23.5844 10.2367 31.3866 10.2367C39.1888 10.2367 45.5363 16.5842 45.5363 24.3863Z" fill="#1F3332"/>
<path d="M28.0466 17.1592V20.4992H26.9986C26.4487 20.4992 25.981 20.9009 25.898 21.4446L24.3721 31.4455C24.3232 31.7664 24.4166 32.0926 24.6282 32.3389C24.8396 32.585 25.1481 32.7267 25.4726 32.7267H37.3004C37.625 32.7267 37.9334 32.5851 38.1449 32.3389C38.3563 32.0926 38.4499 31.7663 38.401 31.4455L36.875 21.4446C36.792 20.9009 36.3244 20.4992 35.7743 20.4992H34.7266V17.1592C34.7266 16.5443 34.228 16.0459 33.6132 16.0459H29.1599C28.5451 16.0459 28.0466 16.5443 28.0466 17.1592ZM36.0044 30.5001H26.7689L27.955 22.7258H34.8181L36.0044 30.5001ZM32.4999 18.2725V20.4992H30.2733V18.2725H32.4999Z" fill="#1F3332"/>
</svg>
