<svg width="78" height="67" viewBox="0 0 78 67" fill="none" xmlns="http://www.w3.org/2000/svg">
<mask id="mask0_792_11470" style="mask-type:alpha" maskUnits="userSpaceOnUse" x="0" y="0" width="78" height="67">
<rect width="78" height="67" fill="white"/>
</mask>
<g mask="url(#mask0_792_11470)">
<path fill-rule="evenodd" clip-rule="evenodd" d="M33.5 61.5C34.1667 58.5 34.6 51.7 31 48.5C27.4 45.3 22.8333 44.1667 21 44C21.6667 39 23.8 28.5 27 26.5C23.3333 22.5 19.8 13.2 35 7.99999C42.1667 6.99999 56.1 8.39999 54.5 22L51.5 26.5C53.6667 29.3333 57.8 36.7 57 43.5C52.1667 44.1667 43 48.7 45 61.5H33.5ZM39 49.5001L34.5 45.5001C32.6667 42.3334 31.1 36.5001 39.5 38.5001C41.6667 37.6667 45.9 37.3001 45.5 42.5001C44.6667 44.1668 42.2 47.9002 39 49.5001Z" fill="#ACCDCD"/>
<path d="M64.2209 35.3788C59.8866 28.5151 54.0972 27.0729 53.8536 27.0146C53.8176 27.0064 53.7836 27.0167 53.7478 27.0115C53.6157 26.7855 53.478 26.5657 53.3415 26.3444C55.1149 24.3779 56.1133 21.834 56.1509 19.1862C56.1469 18.6642 56.1023 18.1433 56.0175 17.6283C57.1907 16.8443 58.165 15.7976 58.8631 14.5713C59.5612 13.3451 59.9639 11.973 60.0392 10.5639C60.1145 9.15486 59.8603 7.74765 59.2969 6.45397C58.7334 5.16028 57.8762 4.01573 56.7933 3.11114C55.7103 2.20655 54.4314 1.56682 53.0581 1.24273C51.6848 0.918636 50.2548 0.919097 48.8817 1.24408C47.5085 1.56905 46.23 2.2096 45.1477 3.11489C44.0653 4.02018 43.2088 5.16529 42.6462 6.45933C40.4056 6.10967 38.1244 6.10967 35.8838 6.45933C35.3208 5.16617 34.4642 4.02199 33.3819 3.11754C32.2996 2.21309 31.0215 1.57326 29.6489 1.2488C28.2763 0.924334 26.847 0.924161 25.4743 1.24829C24.1017 1.57243 22.8234 2.21195 21.7409 3.11613C20.6585 4.02031 19.8016 5.16429 19.2382 6.45732C18.6748 7.75035 18.4205 9.15686 18.4954 10.5653C18.5703 11.9737 18.9723 13.3453 19.6696 14.5713C20.3669 15.7973 21.3403 16.844 22.5126 17.6283C22.4277 18.1433 22.3831 18.6642 22.3792 19.1862C22.4167 21.834 23.4151 24.3779 25.1884 26.3444C25.0521 26.5652 24.9144 26.7851 24.7824 27.0111C24.7466 27.0164 24.7123 27.0062 24.6763 27.0146C24.4327 27.0729 18.6435 28.5151 14.3446 35.3262C11.5354 39.3286 10.7077 43.7241 14.9322 45.8583C12.0357 49.9207 13.0862 56.6341 17.5349 61.3803C22.9394 67.1452 29.7472 67.0019 33.0686 63.4586C33.2699 63.2407 33.4584 63.0113 33.6332 62.7716C37.3481 63.543 41.1818 63.543 44.8967 62.7716C45.0716 63.0113 45.2601 63.2407 45.4615 63.4586C48.8035 67.0246 55.6595 67.0722 60.9952 61.3803C65.4437 56.6346 66.4939 49.9215 63.5979 45.8591C67.8212 43.7247 66.9878 39.3193 64.2209 35.3788ZM50.9552 3.59926C52.2769 3.59724 53.5675 3.9991 54.6544 4.75101C55.7413 5.50293 56.5725 6.569 57.0367 7.80644C57.5008 9.04388 57.5758 10.3936 57.2515 11.6748C56.9272 12.9561 56.2192 14.1076 55.2223 14.9753C54.2217 13.0174 52.8127 11.2971 51.0905 9.9302C49.3683 8.56334 47.3729 7.58183 45.239 7.0519C45.7912 6.01385 46.6142 5.14473 47.6207 4.53683C48.6272 3.92893 49.7794 3.60494 50.9552 3.59926ZM21.0802 10.0938C21.0771 8.64518 21.5594 7.23725 22.4502 6.09484C23.341 4.95242 24.5888 4.1414 25.9945 3.79126C27.4002 3.44112 28.8827 3.57205 30.2052 4.16315C31.5278 4.75425 32.6142 5.77143 33.2909 7.05229C31.1571 7.58225 29.1617 8.56378 27.4395 9.93063C25.7173 11.2975 24.3083 13.0179 23.3076 14.9757C22.6081 14.3692 22.0471 13.6194 21.6628 12.7771C21.2785 11.9348 21.0798 11.0197 21.0802 10.0938ZM39.265 8.79491C47.1434 8.79491 53.5531 13.4566 53.5531 19.1862C53.5531 24.597 47.8351 29.0501 40.5639 29.5296V26.8473C42.8251 26.4231 44.4607 24.9283 44.4607 23.0829C44.4607 20.898 42.1786 19.1862 39.265 19.1862C36.3514 19.1862 34.0694 20.898 34.0694 23.0829C34.0694 24.9283 35.7048 26.4231 37.9661 26.8473V29.5296C30.6949 29.0501 24.977 24.597 24.977 19.1862C24.977 13.4566 31.3865 8.79491 39.265 8.79491ZM39.265 24.3819C37.6794 24.3819 36.6672 23.6125 36.6672 23.0829C36.6672 22.5534 37.6794 21.784 39.265 21.784C40.8506 21.784 41.8628 22.5534 41.8628 23.0829C41.8628 23.6125 40.8506 24.3819 39.265 24.3819ZM16.5061 36.7653C18.1004 34.1658 20.3331 32.0173 22.992 30.5241C21.2698 34.3851 20.2202 38.512 19.8886 42.7267C18.8595 42.9213 17.8781 43.3144 16.9992 43.8841C13.3947 43.1048 14.3633 39.8225 16.5061 36.7653ZM19.4298 59.6028C15.5927 55.5095 14.7187 49.7804 17.4815 46.8332C20.4916 43.6234 25.9347 45.4014 29.2249 48.9114C33.0621 53.0047 33.936 58.7338 31.1733 61.681C28.1633 64.8902 22.7203 63.1123 19.4298 59.6028ZM39.265 60.7514C37.7846 60.7569 36.3067 60.6304 34.8487 60.3735C36.153 56.3641 34.8135 51.0733 31.1208 47.1337C28.8924 44.6298 25.8265 43.0256 22.4989 42.6223C22.9498 37.5266 24.5246 32.5942 27.1101 28.18C30.5985 30.8382 34.8798 32.2454 39.265 32.1753C43.6502 32.2454 47.9315 30.8382 51.42 28.18C54.0054 32.5942 55.5802 37.5266 56.0311 42.6223C52.7035 43.0256 49.6376 44.6298 47.4092 47.1337C43.7161 51.0736 42.3766 56.3641 43.6813 60.3735C42.2234 60.6304 40.7454 60.7569 39.265 60.7514ZM59.0994 59.6028C55.8607 63.0579 50.3806 64.9057 47.3559 61.681C44.5932 58.7338 45.4672 53.0043 49.3043 48.9114C52.543 45.4563 58.0231 43.6085 61.0478 46.8332C63.8111 49.7804 62.9365 55.5095 59.0994 59.6028ZM61.5303 43.8842C60.6514 43.3145 59.6699 42.9213 58.6406 42.7267C58.3096 38.513 57.2608 34.387 55.5396 30.5267C58.2125 32.0355 60.4567 34.2007 62.0602 36.8179C64.1774 39.8389 65.1174 43.0929 61.5303 43.8842Z" fill="#1F3332"/>
<path d="M46.976 41.3531C46.9427 40.0281 46.3977 38.7674 45.4554 37.8354C44.513 36.9033 43.2465 36.3722 41.9212 36.3534C40.9829 36.351 40.0628 36.6116 39.2651 37.1056C38.4674 36.6116 37.5472 36.351 36.6089 36.3534C35.2836 36.3722 34.017 36.9032 33.0747 37.8353C32.1323 38.7674 31.5874 40.028 31.5541 41.3531C31.3662 45.7304 37.8266 49.9997 38.5648 50.4714C38.7737 50.6056 39.0167 50.677 39.265 50.677C39.5133 50.677 39.7563 50.6056 39.9652 50.4714C40.7035 49.9997 47.1637 45.7299 46.976 41.3531ZM39.2643 47.8109C37.0013 46.2088 34.0649 43.4448 34.1498 41.4648C34.1485 40.807 34.4055 40.175 34.8655 39.7049C35.3255 39.2348 35.9518 38.9641 36.6094 38.9512C36.9323 38.9504 37.2521 39.0136 37.5504 39.1371C37.8486 39.2607 38.1194 39.4422 38.3471 39.6711C38.5907 39.9146 38.9211 40.0515 39.2655 40.0515C39.61 40.0515 39.9403 39.9146 40.1839 39.6711C40.4116 39.4422 40.6824 39.2607 40.9807 39.1371C41.279 39.0136 41.5989 38.9504 41.9217 38.9512C42.5793 38.9642 43.2056 39.2348 43.6656 39.7049C44.1256 40.1751 44.3827 40.807 44.3813 41.4648C44.4658 43.4385 41.528 46.205 39.2643 47.8109Z" fill="#1F3332"/>
</g>
</svg>
