<svg width="57" height="51" viewBox="0 0 57 51" fill="none" xmlns="http://www.w3.org/2000/svg">
<mask id="mask0_810_1568" style="mask-type:alpha" maskUnits="userSpaceOnUse" x="0" y="0" width="57" height="51">
<rect width="57" height="51" fill="#FF0000"/>
</mask>
<g mask="url(#mask0_810_1568)">
<rect x="1.33496" y="25.0793" width="24.1433" height="24.1434" rx="2.58679" fill="#ACCDCD"/>
<rect x="31.5142" y="25.0793" width="24.1433" height="24.1434" rx="2.58679" fill="#ACCDCD"/>
<rect x="16.8555" y="1.79834" width="23.281" height="24.1434" rx="2.58679" fill="#F2F7F7"/>
<path d="M53.1127 24.4562H41.1466C41.2792 24.0975 41.3489 23.7186 41.3527 23.3361V4.29605C41.3527 3.40492 40.9987 2.55029 40.3685 1.92016C39.7384 1.29004 38.8838 0.936035 37.9927 0.936035H18.9527C18.0615 0.936035 17.2069 1.29004 16.5768 1.92016C15.9467 2.55029 15.5927 3.40492 15.5927 4.29605V23.3361C15.5964 23.7186 15.6661 24.0975 15.7987 24.4562H3.83266C2.94153 24.4562 2.0869 24.8102 1.45678 25.4403C0.826655 26.0704 0.472656 26.925 0.472656 27.8162V46.8563C0.472656 47.7474 0.826655 48.602 1.45678 49.2322C2.0869 49.8623 2.94153 50.2163 3.83266 50.2163H22.8727C23.7638 50.2163 24.6184 49.8623 25.2485 49.2322C25.8787 48.602 26.2327 47.7474 26.2327 46.8563V27.8162C26.2289 27.4338 26.1592 27.0549 26.0266 26.6962H30.9187C30.7861 27.0549 30.7164 27.4338 30.7127 27.8162V46.8563C30.7127 47.7474 31.0667 48.602 31.6968 49.2322C32.3269 49.8623 33.1815 50.2163 34.0727 50.2163H53.1127C54.0038 50.2163 54.8584 49.8623 55.4885 49.2322C56.1187 48.602 56.4727 47.7474 56.4727 46.8563V27.8162C56.4727 26.925 56.1187 26.0704 55.4885 25.4403C54.8584 24.8102 54.0038 24.4562 53.1127 24.4562ZM17.8327 23.3361V4.29605C17.8327 3.99901 17.9507 3.71413 18.1607 3.50409C18.3707 3.29405 18.6556 3.17605 18.9527 3.17605H37.9927C38.2897 3.17605 38.5746 3.29405 38.7846 3.50409C38.9947 3.71413 39.1127 3.99901 39.1127 4.29605V23.3361C39.1127 23.6332 38.9947 23.9181 38.7846 24.1281C38.5746 24.3382 38.2897 24.4562 37.9927 24.4562H18.9527C18.6556 24.4562 18.3707 24.3382 18.1607 24.1281C17.9507 23.9181 17.8327 23.6332 17.8327 23.3361ZM23.9927 27.8162V46.8563C23.9927 47.1533 23.8747 47.4382 23.6646 47.6482C23.4546 47.8583 23.1697 47.9763 22.8727 47.9763H3.83266C3.53561 47.9763 3.25074 47.8583 3.0407 47.6482C2.83066 47.4382 2.71266 47.1533 2.71266 46.8563V27.8162C2.71266 27.5191 2.83066 27.2342 3.0407 27.0242C3.25074 26.8142 3.53561 26.6962 3.83266 26.6962H22.8727C23.1697 26.6962 23.4546 26.8142 23.6646 27.0242C23.8747 27.2342 23.9927 27.5191 23.9927 27.8162ZM54.2327 46.8563C54.2327 47.1533 54.1147 47.4382 53.9046 47.6482C53.6946 47.8583 53.4097 47.9763 53.1127 47.9763H34.0727C33.7756 47.9763 33.4907 47.8583 33.2807 47.6482C33.0707 47.4382 32.9527 47.1533 32.9527 46.8563V27.8162C32.9527 27.5191 33.0707 27.2342 33.2807 27.0242C33.4907 26.8142 33.7756 26.6962 34.0727 26.6962H53.1127C53.4097 26.6962 53.6946 26.8142 53.9046 27.0242C54.1147 27.2342 54.2327 27.5191 54.2327 27.8162V46.8563Z" fill="#1F3332"/>
<path d="M23.6567 19.8049C23.9341 19.9105 24.2421 19.9016 24.513 19.7802C24.784 19.6588 24.9956 19.4349 25.1015 19.1575L25.8743 17.1281H31.0845L31.8495 19.1541C31.9575 19.4277 32.1687 19.6478 32.4376 19.7669C32.7065 19.886 33.0115 19.8946 33.2866 19.7908C33.5618 19.6869 33.7851 19.479 33.9082 19.212C34.0314 18.9449 34.0446 18.6401 33.945 18.3634L29.7618 7.28769C29.6585 7.03595 29.4824 6.82073 29.2562 6.66951C29.03 6.51829 28.7638 6.43794 28.4917 6.43873C28.2151 6.43976 27.9453 6.52409 27.7173 6.68072C27.4894 6.83734 27.3139 7.059 27.2138 7.31681L23.0082 18.3601C22.9026 18.6377 22.9117 18.9458 23.0333 19.2167C23.1549 19.4877 23.3791 19.6992 23.6567 19.8049ZM28.4917 10.2557L30.2389 14.888H26.7243L28.4917 10.2557Z" fill="#1F3332"/>
<path d="M15.567 36.9936C16.056 36.3571 16.3224 35.5775 16.3252 34.7749C16.3252 33.7946 15.9358 32.8545 15.2427 32.1614C14.5496 31.4683 13.6095 31.0789 12.6292 31.0789H9.38123C9.08419 31.0789 8.79931 31.1969 8.58927 31.4069C8.37923 31.6169 8.26123 31.9018 8.26123 32.1989V43.3989C8.26123 43.696 8.37923 43.9808 8.58927 44.1909C8.79931 44.4009 9.08419 44.5189 9.38123 44.5189C9.38123 44.5189 12.3739 44.5055 13.1982 44.5055C14.0769 44.5067 14.9331 44.2275 15.6422 43.7085C16.3513 43.1895 16.8763 42.4578 17.1408 41.6198C17.4053 40.7818 17.3955 39.8813 17.1128 39.0493C16.8302 38.2172 16.2894 37.4971 15.5692 36.9936H15.567ZM12.6281 33.3189C13.0143 33.3189 13.3846 33.4723 13.6577 33.7453C13.9307 34.0184 14.0841 34.3887 14.0841 34.7749C14.0841 35.161 13.9307 35.5314 13.6577 35.8044C13.3846 36.0775 13.0143 36.2309 12.6281 36.2309H11.5081H10.4945V33.3189H12.6281ZM13.1959 42.2644C12.7031 42.2644 11.4364 42.2644 10.4945 42.2722V38.4799H11.5473H13.1959C13.6985 38.4799 14.1806 38.6795 14.5359 39.0349C14.8913 39.3903 15.091 39.8723 15.091 40.3749C15.091 40.8775 14.8913 41.3595 14.5359 41.7149C14.1806 42.0703 13.6985 42.27 13.1959 42.27V42.2644Z" fill="#1F3332"/>
<path d="M46.7398 41.0858C46.6337 41.2113 46.5192 41.3296 46.3971 41.4397C45.7526 41.9986 44.9212 42.2942 44.0686 42.2674C43.3685 42.267 42.6781 42.1026 42.053 41.7873C41.4279 41.4719 40.8855 41.0145 40.4691 40.4516C40.0527 39.8887 39.7741 39.2361 39.6555 38.5461C39.5369 37.856 39.5818 37.1478 39.7863 36.4782C39.9909 35.8087 40.3496 35.1964 40.8336 34.6904C41.3176 34.1845 41.9134 33.7991 42.5732 33.565C43.2331 33.331 43.9386 33.2549 44.6332 33.3428C45.3278 33.4307 45.9921 33.6801 46.5729 34.0712C46.6946 34.1576 46.8324 34.2188 46.9781 34.2512C47.1239 34.2836 47.2746 34.2866 47.4215 34.2599C47.5684 34.2332 47.7084 34.1774 47.8334 34.0958C47.9585 34.0142 48.0659 33.9085 48.1494 33.7847C48.233 33.661 48.291 33.5218 48.3199 33.3754C48.3489 33.229 48.3484 33.0782 48.3182 32.932C48.2881 32.7858 48.2291 32.647 48.1446 32.524C48.0601 32.4009 47.9518 32.296 47.8262 32.2153C46.9553 31.6271 45.9586 31.2513 44.9162 31.1181C43.8737 30.985 42.8146 31.0982 41.8238 31.4486C40.833 31.7991 39.9382 32.377 39.2114 33.136C38.4845 33.8951 37.9458 34.814 37.6384 35.819C37.3311 36.824 37.2638 37.887 37.4419 38.9228C37.62 39.9585 38.0385 40.938 38.6639 41.7827C39.2892 42.6273 40.1039 43.3135 41.0426 43.7861C41.9812 44.2587 43.0177 44.5046 44.0686 44.504C45.4703 44.5303 46.8313 44.0327 47.8855 43.1085C48.0894 42.928 48.2796 42.7326 48.4545 42.5239C48.6457 42.2965 48.7386 42.0025 48.713 41.7065C48.6874 41.4106 48.5453 41.1369 48.3179 40.9458C48.0905 40.7546 47.7965 40.6616 47.5005 40.6873C47.2046 40.7129 46.9309 40.855 46.7398 41.0824V41.0858Z" fill="#1F3332"/>
</g>
</svg>
