<svg width="57" height="58" viewBox="0 0 57 58" fill="none" xmlns="http://www.w3.org/2000/svg">
<mask id="mask0_810_1567" style="mask-type:alpha" maskUnits="userSpaceOnUse" x="0" y="0" width="57" height="58">
<rect width="57" height="58" fill="#FF0000"/>
</mask>
<g mask="url(#mask0_810_1567)">
<path d="M19.1211 6.62305L21.2129 19.625L23.2637 22.5371L48.3242 22.045L49.3086 17.4102L50.2109 6.62305L41.4746 11.9141L34.543 2.64453L28.2676 11.9141L19.1211 6.62305Z" fill="#F2F7F7" stroke="black" stroke-width="1.01818"/>
<rect x="21.3359" y="22.4141" width="26.7422" height="4.34767" fill="#ACCDCD"/>
<path d="M47.3809 21.2656H22.6895L22.3613 23.6856L47.3809 23.5215V21.2656Z" fill="#1F3332"/>
<path d="M34.3734 1.12026C34.2641 1.18588 32.8422 3.24214 31.2125 5.68121C29.5828 8.13121 28.2156 10.1765 28.1719 10.2203C28.1281 10.275 26.05 8.96246 23.5672 7.29996C19.3781 4.51089 19.0063 4.2812 18.5688 4.2812C18.1859 4.2812 18.0328 4.34683 17.7703 4.59839C17.5734 4.79527 17.4531 5.03589 17.4531 5.22183C17.4531 5.38589 18.1641 9.30153 19.0391 13.9062L20.625 22.2844V24.4172C20.625 26.9109 20.6688 27.2719 21.0406 27.6328L21.3141 27.9062H34.9531H48.5922L48.8875 27.6219L49.1719 27.3266V25.0844V22.8531L50.8781 14.1359C52.0156 8.30621 52.5516 5.32027 52.5078 5.07964C52.4203 4.59839 51.9937 4.2812 51.425 4.2812C51.0203 4.2812 50.5391 4.56558 46.4484 7.29996C43.9656 8.96246 41.8875 10.275 41.8438 10.2203C41.8 10.1765 40.4328 8.13121 38.7922 5.68121C37.1625 3.2312 35.7406 1.17495 35.6203 1.10932C35.3469 0.967133 34.625 0.967133 34.3734 1.12026ZM40.9578 12.9109C41.0781 12.9765 41.3625 13.0312 41.5922 13.0312C41.9531 13.0312 42.5109 12.6922 45.8687 10.4609C47.9797 9.04996 49.7188 7.95621 49.7078 8.02184C49.7078 8.0984 49.1281 11.0953 48.4281 14.6718L47.1484 21.1797L43.3641 21.2344C39.4047 21.289 39.4266 21.289 39.0328 21.7812C38.9562 21.8687 38.8906 22.175 38.8906 22.4484C38.8906 22.8531 38.9453 23.0172 39.175 23.2469L39.4703 23.5312H43.1672H46.875V24.5703V25.6094H34.8984H22.9219V24.5703V23.5312H26.7937H30.6547L30.95 23.2469C31.1797 23.0172 31.2344 22.8531 31.2344 22.4484C31.2344 22.175 31.1687 21.8687 31.0922 21.7812C30.6875 21.289 30.7312 21.289 26.6516 21.2344L22.7687 21.1797L21.5328 14.7265C20.8656 11.1718 20.3078 8.1859 20.3078 8.07652C20.2969 7.94527 21.4344 8.64527 24.1469 10.4609C27.5922 12.7468 28.0516 13.0312 28.4453 13.0312C28.6859 13.0312 28.9922 12.9656 29.1125 12.8781C29.2328 12.7906 30.6 10.8109 32.1641 8.45934L35.0078 4.1937L37.8734 8.50309C39.4484 10.8656 40.8375 12.8562 40.9578 12.9109Z" fill="#1F3332"/>
<path d="M34.7673 21.3109C34.636 21.3328 34.4063 21.4859 34.2532 21.6391C33.8485 22.0437 33.8485 22.8312 34.2532 23.2469C34.4829 23.4766 34.647 23.5312 35.0626 23.5312C35.4782 23.5312 35.6423 23.4766 35.872 23.2469C36.1017 23.0172 36.1563 22.8531 36.1563 22.4375C36.1563 22.0219 36.1017 21.8578 35.872 21.6281C35.7079 21.475 35.522 21.3437 35.4345 21.3437C35.3579 21.3437 35.2376 21.3219 35.1501 21.3C35.0735 21.2781 34.8985 21.2891 34.7673 21.3109Z" fill="#1F3332"/>
<path d="M1.77148 39.5176V52.7657H11.1641L25.9707 55.3497L32.9023 55.7599C39.2051 51.1114 52.2043 41.5028 53.7793 40.2559C55.748 38.6973 54.2305 38.5333 53.4102 37.3028C52.7539 36.3184 49.3906 36.5918 47.791 36.8516L39.793 41.8145C38.959 41.3633 37.2336 40.42 37.0039 40.2559C36.7168 40.0508 31.4668 39.5176 30.8105 39.5176C30.1543 39.5176 26.791 37.7539 25.9707 36.8516C25.1504 35.9493 19.9004 35.9082 17.8086 36.3594C16.1352 36.7204 12.9551 38.6153 11.5742 39.5176H1.77148Z" fill="#ACCDCD"/>
<path d="M19.2359 34.8406C17.0703 35.2562 15.4734 36.0656 13.5484 37.7171L12.8812 38.2968H7.30312C4.24062 38.2968 1.58281 38.3296 1.38594 38.3625C1.2 38.4062 0.926562 38.5593 0.773438 38.7125L0.5 38.9859V46.0515V53.1281L0.80625 53.4234L1.1125 53.7187H6.87656H12.6406L22.4844 55.3594C27.8984 56.2562 32.5141 57 32.7547 57C33.1484 57 33.7172 56.6062 39.6781 52.275C43.2437 49.6828 48.3516 45.964 51.0312 44.0172C53.7109 42.0593 56.0297 40.3312 56.1937 40.1453C56.4344 39.8937 56.5 39.7187 56.5 39.3468C56.5 38.9422 56.4234 38.7672 56.0078 38.2531C55.0672 37.1046 53.4813 36.1203 51.9062 35.7156C50.8563 35.4421 49.1281 35.464 48.0453 35.7703C46.8312 36.0984 46.3172 36.3937 42.8828 38.6578L39.8312 40.6812L39.5141 40.2656C39.0984 39.6968 38.2672 39.0953 37.5016 38.8109C36.9109 38.6031 36.6047 38.5812 33.4547 38.5375L30.0422 38.4937L29.6156 38.2093C29.375 38.0453 28.7734 37.575 28.2703 37.1703C27.1547 36.2625 25.3281 35.3328 24.0156 35.0156C22.8125 34.7093 20.3625 34.6328 19.2359 34.8406ZM23.0094 37.1593C24.6062 37.4875 25.7875 38.1 27.3516 39.4234C27.8328 39.8281 28.5 40.2984 28.8281 40.4625L29.4297 40.7578L32.9953 40.8125L36.5609 40.8672L37.0859 41.1953C38.4312 42.0265 38.4641 43.7547 37.1625 44.6515L36.7687 44.914L29.6594 44.9687C24.1578 45.0125 22.4844 45.0562 22.2984 45.1656C22.0031 45.3297 21.7188 45.8437 21.7188 46.1937C21.7188 46.5547 22.1125 47.1453 22.3969 47.2109C22.5391 47.2437 25.9187 47.2547 29.9219 47.2437L37.1953 47.2109L37.9062 46.8719C39.2188 46.2484 40.2141 44.9359 40.3891 43.5906L40.4547 43.0547L44.0094 40.7031C47.7172 38.264 48.2969 37.9578 49.5984 37.8046C50.7359 37.6734 52.7922 38.3078 53.4266 38.9968L53.6344 39.2265L43.3531 46.7187C37.6984 50.8422 32.9078 54.3203 32.7219 54.4516L32.3828 54.6812L22.6484 53.0516L12.9141 51.4219H7.80625H2.6875V46.0078V40.5937H8.18906H13.6906L14.0297 40.3422C14.2156 40.2109 14.7516 39.7625 15.2219 39.3578C16.6109 38.1546 17.8687 37.4984 19.4766 37.1484C20.3844 36.9406 22.0031 36.9515 23.0094 37.1593Z" fill="#1F3332"/>
</g>
</svg>
