<svg width="78" height="67" viewBox="0 0 78 67" fill="none" xmlns="http://www.w3.org/2000/svg">
<mask id="mask0_792_10468" style="mask-type:alpha" maskUnits="userSpaceOnUse" x="0" y="0" width="78" height="67">
<rect width="78" height="67" fill="white"/>
</mask>
<g mask="url(#mask0_792_10468)">
<path d="M42.5 2V26V27H66C66 8.2 50.3333 2.5 42.5 2Z" fill="#ACCDCD"/>
<path d="M66 32H19.5C19.5 45.2 30.5 49.5 36 50H49C61 50 65.3333 38 66 32Z" fill="#ACCDCD"/>
<path d="M67.1521 32.1739V25.6793C67.1449 19.1362 64.5425 12.8631 59.9158 8.23638C55.289 3.60967 49.016 1.00722 42.4728 1C42.1283 1 41.7979 1.13685 41.5543 1.38044C41.3107 1.62404 41.1739 1.95442 41.1739 2.29891V25.6793H33.4181L24.0659 11.9589C23.9465 11.7836 23.7858 11.6401 23.5981 11.5412C23.4104 11.4422 23.2013 11.3908 22.9891 11.3913H11.2989C10.9544 11.3913 10.624 11.5281 10.3804 11.7717C10.1368 12.0153 10 12.3457 10 12.6902C10 13.0347 10.1368 13.3651 10.3804 13.6087C10.624 13.8523 10.9544 13.9891 11.2989 13.9891H22.3033L30.2734 25.6793H19.0924C18.7479 25.6793 18.4175 25.8162 18.1739 26.0598C17.9303 26.3034 17.7935 26.6338 17.7935 26.9782V32.1739C17.8007 36.7171 19.3936 41.1153 22.2974 44.6095C25.2011 48.1037 29.2335 50.4747 33.6987 51.3134L32.1179 53.5215C31.2896 53.1493 30.3918 52.9567 29.4837 52.9565C28.2549 52.9567 27.0513 53.3056 26.0129 53.9625C24.9744 54.6195 24.1437 55.5576 23.6171 56.6678C23.0904 57.7781 22.8896 59.0149 23.0379 60.2348C23.1862 61.4546 23.6775 62.6073 24.4548 63.5591C25.232 64.5108 26.2634 65.2226 27.429 65.6116C28.5946 66.0006 29.8466 66.0509 31.0397 65.7568C32.2328 65.4626 33.3179 64.836 34.1691 63.9498C35.0203 63.0635 35.6026 61.9539 35.8484 60.75H49.0973C49.361 62.0765 50.0306 63.2882 51.0134 64.2173C51.9962 65.1464 53.2436 65.7471 54.5828 65.936C55.922 66.1249 57.2868 65.8928 58.4883 65.2719C59.6898 64.6509 60.6685 63.6717 61.289 62.47C61.9094 61.2682 62.1409 59.9033 61.9514 58.5641C61.7618 57.225 61.1607 55.9779 60.2311 54.9955C59.3015 54.0132 58.0895 53.3441 56.7629 53.0809C55.4362 52.8178 54.0606 52.9735 52.8264 53.5267L51.2457 51.3186C55.7121 50.4803 59.7456 48.1087 62.6497 44.6133C65.5538 41.118 67.1463 36.7183 67.1521 32.1739ZM29.4837 63.3478C28.713 63.3478 27.9596 63.1192 27.3188 62.6911C26.678 62.2629 26.1785 61.6543 25.8836 60.9423C25.5886 60.2302 25.5115 59.4467 25.6618 58.6908C25.8122 57.9349 26.1833 57.2406 26.7283 56.6956C27.2732 56.1507 27.9676 55.7795 28.7235 55.6292C29.4794 55.4788 30.2629 55.556 30.9749 55.8509C31.6869 56.1459 32.2955 56.6453 32.7237 57.2861C33.1519 57.927 33.3804 58.6804 33.3804 59.4511C33.3804 60.4845 32.9699 61.4757 32.2391 62.2065C31.5083 62.9372 30.5172 63.3478 29.4837 63.3478ZM55.4619 55.5543C56.2326 55.5543 56.986 55.7829 57.6268 56.211C58.2677 56.6392 58.7671 57.2478 59.062 57.9598C59.357 58.6719 59.4342 59.4554 59.2838 60.2113C59.1334 60.9672 58.7623 61.6615 58.2173 62.2065C57.6724 62.7514 56.978 63.1226 56.2221 63.2729C55.4663 63.4233 54.6828 63.3461 53.9707 63.0512C53.2587 62.7562 52.6501 62.2568 52.2219 61.616C51.7937 60.9751 51.5652 60.2218 51.5652 59.4511C51.5652 58.4176 51.9757 57.4264 52.7065 56.6956C53.4373 55.9649 54.4285 55.5543 55.4619 55.5543ZM43.7717 3.63549C49.3911 3.9738 54.6698 6.44271 58.5315 10.5388C62.3933 14.635 64.5473 20.0498 64.5543 25.6793H47.5671L57.383 20.3252C57.6855 20.1602 57.91 19.8818 58.0072 19.5512C58.1044 19.2207 58.0663 18.8651 57.9013 18.5626C57.7363 18.2601 57.4579 18.0356 57.1273 17.9384C56.7968 17.8412 56.4411 17.8793 56.1387 18.0443L45.4876 23.8544L51.4353 11.9719C51.5116 11.8192 51.557 11.6531 51.569 11.4828C51.581 11.3126 51.5594 11.1417 51.5054 10.9798C51.4513 10.818 51.3659 10.6683 51.2541 10.5395C51.1422 10.4106 51.0061 10.305 50.8534 10.2288C50.7007 10.1525 50.5345 10.1071 50.3643 10.0951C50.1941 10.0831 50.0232 10.1047 49.8613 10.1587C49.6994 10.2127 49.5498 10.2981 49.4209 10.41C49.2921 10.5219 49.1865 10.658 49.1102 10.8107L43.7717 21.4761V3.63549ZM64.5543 28.2772V30.875H36.9602L35.1885 28.2772H64.5543ZM20.3913 28.2772H32.0451L33.8156 30.875H20.3913V28.2772ZM20.4407 33.4728H35.5886L40.0166 39.9674H38.5761C38.2316 39.9674 37.9012 40.1042 37.6576 40.3478C37.414 40.5914 37.2772 40.9218 37.2772 41.2663C37.2772 41.6108 37.414 41.9412 37.6576 42.1848C37.9012 42.4283 38.2316 42.5652 38.5761 42.5652H39.949L35.3911 48.9454C31.4905 48.5028 27.8654 46.7168 25.1375 43.8937C22.4097 41.0706 20.7491 37.3863 20.4407 33.4728ZM42.4728 43.5004L46.4449 49.0598H38.5007L42.4728 43.5004ZM49.0973 58.1521H35.8484C35.6039 56.9871 35.043 55.9121 34.2273 55.0451L36.668 51.6264H48.2789L50.7209 55.0451C49.9042 55.9118 49.3424 56.9869 49.0973 58.1521ZM49.5532 48.9454L44.9966 42.5652H46.3695C46.714 42.5652 47.0444 42.4283 47.288 42.1848C47.5316 41.9412 47.6685 41.6108 47.6685 41.2663C47.6685 40.9218 47.5316 40.5914 47.288 40.3478C47.0444 40.1042 46.714 39.9674 46.3695 39.9674H43.1599L38.7306 33.4728H64.505C64.196 37.3862 62.5353 41.0702 59.8075 43.8932C57.0798 46.7162 53.4536 48.5024 49.5532 48.9454Z" fill="#1F3332"/>
</g>
</svg>
