<svg width="64" height="64" viewBox="0 0 64 64" fill="none" xmlns="http://www.w3.org/2000/svg">
<path fill-rule="evenodd" clip-rule="evenodd" d="M47.0491 58.2059L59.1082 46.1615C60.1307 45.1401 60.1307 43.4674 59.1082 42.446L57.1199 40.4634C56.0973 39.4419 54.4257 39.4419 53.4031 40.4634L53.3494 40.5139L41.3948 52.454L41.3441 52.5078C40.3215 53.5291 40.3215 55.1987 41.3441 56.2201L43.3323 58.2059C43.535 58.4083 43.766 58.5728 44.0129 58.696H46.3684C46.6154 58.5728 46.8433 58.4083 47.0491 58.2059Z" fill="#ACCDCD"/>
<path fill-rule="evenodd" clip-rule="evenodd" d="M18.4329 58.6966H20.7884C21.0354 58.5734 21.2633 58.4089 21.4691 58.2065L23.4574 56.2207C24.4799 55.1994 24.4799 53.5297 23.4574 52.5084L23.4035 52.4547L11.4489 40.5146L11.3982 40.4641C10.3756 39.4426 8.70086 39.4426 7.6783 40.4641L5.69328 42.4468C4.6706 43.4681 4.6706 45.1409 5.69328 46.1622L17.7491 58.2066C17.9549 58.4089 18.1859 58.5734 18.4329 58.6966Z" fill="#ACCDCD"/>
<path d="M32.401 10.265C33.0224 10.265 33.5261 9.76127 33.5261 9.13989V4.1217C33.5261 3.50032 33.0224 2.99658 32.401 2.99658C31.7796 2.99658 31.2759 3.50032 31.2759 4.1217V9.13989C31.276 9.76127 31.7797 10.265 32.401 10.265Z" fill="#1F3332"/>
<path d="M59.9026 41.65L57.915 39.668C57.2079 38.9619 56.2656 38.5729 55.2614 38.5729C54.6194 38.5729 54.003 38.7326 53.4569 39.0319L49.7114 35.2909L49.8938 35.1087C51.4133 33.5862 51.4127 31.1121 49.8937 29.5948C49.3508 29.0509 48.6735 28.6883 47.9351 28.5357C48.0368 28.1848 48.0903 27.8172 48.0903 27.4411C48.0903 26.3959 47.6843 25.4159 46.9494 24.6841C46.4065 24.1402 45.7292 23.7776 44.9909 23.625C45.0926 23.2741 45.1461 22.9066 45.1461 22.5303C45.1461 21.4851 44.7401 20.5052 44.004 19.7722C43.4481 19.217 42.7647 18.8655 42.0471 18.7159C42.431 17.3924 42.103 15.9033 41.0617 14.8603C40.1951 13.9973 39.019 13.6263 37.8856 13.7466L30.4635 12.3417C29.3316 12.127 27.918 11.985 27.0258 12.7988C26.9695 12.8502 26.9121 12.9093 26.8555 12.9751C25.4719 12.4708 23.8584 12.7711 22.7503 13.8778C22.0153 14.6119 21.6105 15.5915 21.6105 16.6361C21.6105 17.0123 21.6638 17.3798 21.7653 17.7308C21.0278 17.8833 20.3513 18.2455 19.8102 18.7875C19.0738 19.521 18.6677 20.4994 18.6669 21.5428C18.6666 21.9199 18.7201 22.2886 18.8222 22.6405C18.0843 22.7927 17.4074 23.1542 16.8647 23.6962C16.1282 24.4319 15.7227 25.412 15.7227 26.456C15.7227 27.2558 15.9614 28.0175 16.4038 28.661C15.8452 28.8504 15.3335 29.1656 14.9051 29.5936C13.3846 31.1121 13.3841 33.5863 14.9061 35.111L15.0879 35.292L11.3419 39.0311C9.94981 38.3757 8.23459 38.6212 7.08579 39.7686L5.09697 41.7518C4.38956 42.4583 4.00011 43.4008 4 44.4055C4 45.4103 4.38956 46.3528 5.09697 47.0595L7.57903 49.5385C8.01864 49.9777 8.73107 49.9772 9.17013 49.5376C9.6093 49.098 9.60885 48.3856 9.16923 47.9465L6.68718 45.4675C6.40542 45.1861 6.25024 44.8089 6.25024 44.4056C6.25024 44.0024 6.40542 43.6253 6.68651 43.3446L8.67544 41.3612C9.17236 40.8648 9.93294 40.7909 10.5105 41.1362C10.5512 41.1974 10.5982 41.2556 10.6521 41.3094C10.7484 41.406 10.8584 41.4801 10.9754 41.5343L22.3811 52.9233C22.4353 53.0413 22.5097 53.1525 22.6068 53.2497C22.7013 53.3444 22.8091 53.4175 22.9235 53.4714C23.1647 53.7441 23.298 54.0924 23.298 54.464C23.298 54.8673 23.1428 55.2443 22.8611 55.5258L20.8741 57.5103C20.2871 58.0948 19.3321 58.0947 18.7468 57.5121L16.2646 55.0298C15.8252 54.5904 15.1129 54.5904 14.6735 55.0297C14.2341 55.4691 14.234 56.1814 14.6734 56.6208L17.1572 59.1049C17.8885 59.8329 18.8486 60.1968 19.809 60.1968C20.7698 60.1968 21.731 59.8324 22.463 59.1037L24.4512 57.1179C25.1586 56.4112 25.5481 55.4688 25.5481 54.4639C25.5481 53.7467 25.3487 53.0619 24.9778 52.4714L29.1936 48.2607C29.1981 48.2561 29.2027 48.2515 29.2071 48.247C29.6899 47.748 31.0342 47.8414 32.3343 47.9317C33.258 47.9958 34.2878 48.0673 35.2939 47.9513L39.9106 52.5625C39.6115 53.1078 39.4519 53.7234 39.4519 54.3644C39.4519 55.3682 39.8414 56.3101 40.5488 57.0168L42.5371 59.0026C43.2441 59.7087 44.1864 60.0977 45.1905 60.0977C46.1946 60.0977 47.1369 59.7087 47.844 59.0026L59.903 46.9581C60.6104 46.2516 61 45.3092 61 44.3044C61.0002 43.2997 60.6107 42.3572 59.9026 41.65ZM30.0446 14.5526L34.9252 15.4764L32.0039 18.3966C31.552 18.1795 30.9326 17.7744 30.2532 17.1244C29.3231 16.2346 28.6577 15.2074 28.5973 14.5667C28.5972 14.5663 28.5972 14.566 28.5972 14.5657C28.5972 14.5656 28.5972 14.5655 28.5972 14.5653C28.5928 14.5193 28.5917 14.4826 28.5922 14.4545C28.7392 14.4188 29.1302 14.3791 30.0446 14.5526ZM24.3404 15.4699C24.9104 14.9005 25.7959 14.8348 26.44 15.271C26.805 16.8013 28.1104 18.1883 28.6977 18.7502C29.133 19.1667 30.5296 20.4154 31.9392 20.7586C32.1299 21.032 32.2337 21.3579 32.2337 21.7017C32.2337 22.1447 32.0633 22.5588 31.7529 22.869C31.4433 23.1791 31.0285 23.3498 30.5847 23.3498C30.1409 23.3498 29.7261 23.1791 29.415 22.8675L29.4149 22.8674L29.4144 22.8668L24.3403 17.802C24.031 17.4931 23.8606 17.0789 23.8606 16.6361C23.8607 16.1931 24.0311 15.7789 24.3404 15.4699ZM21.4004 20.3796C21.71 20.0696 22.1244 19.8988 22.5675 19.8988C23.0111 19.8988 23.4268 20.07 23.7384 20.3812L27.8242 24.4588C28.4676 25.1032 28.4676 26.1518 27.8264 26.794C27.5152 27.104 27.0989 27.2747 26.6544 27.2747C26.2098 27.2747 25.7936 27.104 25.4837 26.7953L25.4835 26.7952L22.3839 23.6962C22.3791 23.6914 22.3739 23.687 22.3689 23.6821L21.3992 22.7128C21.0881 22.402 20.9168 21.9871 20.9172 21.5444C20.9176 21.1032 21.0883 20.6904 21.4004 20.3796ZM18.4549 25.2884C18.7647 24.979 19.1799 24.8086 19.6243 24.8086C20.0651 24.8086 20.4768 24.9765 20.7852 25.2805L23.8943 28.3882C24.2044 28.697 24.3752 29.1107 24.3752 29.5531C24.3752 29.9954 24.2044 30.4091 23.8931 30.7191C23.5834 31.0284 23.1686 31.1987 22.725 31.1987C22.2807 31.1987 21.8645 31.0279 21.5544 30.7191L20.4273 29.5933C20.427 29.593 20.4267 29.5928 20.4265 29.5925L18.455 27.6234C18.1442 27.3129 17.973 26.8982 17.973 26.4558C17.973 26.0135 18.1442 25.5987 18.4549 25.2884ZM16.4953 31.1857C16.8065 30.8749 17.2223 30.7037 17.6661 30.7037C18.1098 30.7037 18.5255 30.8747 18.8366 31.1853L19.9653 32.3127C20.2753 32.6215 20.4461 33.0352 20.4461 33.4776C20.4461 33.92 20.2753 34.3336 19.963 34.6448C19.6534 34.9548 19.2386 35.1257 18.7948 35.1257C18.351 35.1257 17.9362 34.9549 17.6243 34.6426L17.483 34.5018C17.4811 34.4999 17.4797 34.4979 17.4779 34.4961C17.4758 34.4941 17.4735 34.4923 17.4714 34.4903L16.4964 33.5191C15.853 32.8743 15.8525 31.8276 16.4953 31.1857ZM39.4238 43.9727C38.9847 43.5329 38.2722 43.5326 37.8327 43.9717L36.8317 44.9713C35.8806 45.9225 34.1571 45.8027 32.4902 45.6871C30.6803 45.5613 28.8086 45.4315 27.5975 46.6749L23.4533 50.8141L13.0899 40.4659L16.7574 36.805C17.3636 37.1766 18.0631 37.3758 18.7949 37.3758C19.8404 37.3758 20.821 36.9705 21.5533 36.2368C22.2905 35.5026 22.6966 34.5227 22.6966 33.4775C22.6966 33.4677 22.6959 33.4581 22.6959 33.4484C22.7057 33.4485 22.7154 33.4491 22.7251 33.4491C23.7692 33.4491 24.7489 33.045 25.4822 32.3126C26.2194 31.5784 26.6255 30.5984 26.6255 29.5532C26.6255 29.5435 26.6249 29.5339 26.6249 29.5242C26.6347 29.5242 26.6445 29.5248 26.6545 29.5248C27.6983 29.5248 28.6785 29.1212 29.4167 28.386C30.1831 27.6184 30.5622 26.6078 30.5549 25.5993C30.565 25.5993 30.575 25.5999 30.5851 25.5999C31.6307 25.5999 32.611 25.1946 33.3444 24.4598C34.0794 23.7257 34.4843 22.7462 34.4843 21.7016C34.4843 20.9712 34.2857 20.2728 33.9153 19.6678L37.1298 16.4546C37.3693 16.2161 37.6647 16.0664 37.9743 16.0046C38.0078 16.001 38.0409 15.9957 38.0736 15.9892C38.5703 15.9207 39.0919 16.0739 39.4718 16.4523C40.1152 17.0968 40.1152 18.1454 39.4741 18.7875L38.4951 19.7625C38.4919 19.7657 38.4884 19.7687 38.4852 19.772L37.3577 20.8977C36.918 21.3367 36.9175 22.0492 37.3567 22.4888C37.796 22.9285 38.5083 22.9288 38.9478 22.4898L39.9307 21.5082C39.9309 21.508 39.9312 21.5078 39.9314 21.5076L40.08 21.3595C40.7251 20.7203 41.7704 20.7216 42.4149 21.3652C42.725 21.674 42.8958 22.0877 42.8958 22.5301C42.8958 22.9724 42.725 23.3861 42.4124 23.6974L41.4278 24.684C41.4277 24.6841 41.4276 24.6842 41.4275 24.6844L40.3 25.8073C39.8598 26.2458 39.8583 26.9582 40.2968 27.3984C40.7353 27.8387 41.4476 27.84 41.8879 27.4016L43.0205 26.2736C43.3301 25.9635 43.7449 25.7928 44.1886 25.7928C44.6325 25.7928 45.0474 25.9635 45.3592 26.2758C45.6694 26.5847 45.8401 26.9984 45.8401 27.4407C45.8401 27.883 45.6694 28.2967 45.3574 28.6073L43.3945 30.571C42.9553 31.0105 42.9554 31.7228 43.3948 32.1621C43.6145 32.3817 43.9023 32.4914 44.1902 32.4914C44.4782 32.4914 44.7662 32.3815 44.9859 32.1617L45.9479 31.1994C45.9534 31.1941 45.9593 31.1896 45.9648 31.1841C46.2743 30.874 46.6891 30.7033 47.1329 30.7033C47.5766 30.7033 47.9916 30.874 48.3023 31.1852C48.945 31.8273 48.9444 32.8741 48.3024 33.5173L47.3243 34.4943C47.3239 34.4947 47.3235 34.495 47.3231 34.4953C47.3228 34.4957 47.3225 34.4961 47.3221 34.4965L45.7697 36.047C45.3301 36.4862 45.3296 37.1985 45.7687 37.6382C45.9884 37.8582 46.2767 37.9682 46.5648 37.9682C46.8526 37.9682 47.1403 37.8585 47.3599 37.6392L48.1193 36.8808L51.7587 40.516L41.3962 50.8658L37.6834 47.1574C37.9422 46.991 38.1899 46.7953 38.4224 46.5628L39.4228 45.5636C39.8626 45.1247 39.863 44.4123 39.4238 43.9727ZM58.313 45.366L46.254 57.4105C45.9719 57.6922 45.5943 57.8474 45.1908 57.8474C44.7872 57.8474 44.4096 57.6922 44.1274 57.4103L42.1392 55.4245C41.8574 55.1432 41.7022 54.7667 41.7022 54.3644C41.7022 53.9622 41.8574 53.5858 42.1392 53.3043L54.1982 41.2599C54.4804 40.978 54.858 40.8229 55.2616 40.8229C55.6651 40.8229 56.0427 40.978 56.3255 41.2606L58.313 43.2426C58.5948 43.524 58.75 43.901 58.75 44.3043C58.75 44.7077 58.5948 45.0847 58.313 45.366Z" fill="#1F3332"/>
<path d="M17.4595 9.31655C17.6791 9.53574 17.9667 9.64523 18.2543 9.64523C18.5425 9.64523 18.8308 9.53507 19.0506 9.31487C19.4895 8.87504 19.4889 8.16272 19.049 7.72377L14.9492 3.63207C14.5094 3.19301 13.797 3.19368 13.3581 3.63363C12.9191 4.07347 12.9198 4.78579 13.3596 5.22473L17.4595 9.31655Z" fill="#1F3332"/>
<path d="M46.546 9.64519C46.8337 9.64519 47.1215 9.53548 47.3411 9.31617L51.4378 5.22436C51.8774 4.7853 51.8779 4.07287 51.4387 3.63325C50.9997 3.19353 50.2873 3.19319 49.8476 3.63236L45.7509 7.72418C45.3113 8.16323 45.3108 8.87567 45.75 9.31528C45.9697 9.53514 46.2579 9.64519 46.546 9.64519Z" fill="#1F3332"/>
<path d="M10.9185 51.3935C10.4829 51.8366 10.4889 52.549 10.9321 52.9846L10.9353 52.9877C11.154 53.2027 11.4379 53.3097 11.7216 53.3097C12.0129 53.3097 12.3041 53.197 12.5248 52.9725C12.9604 52.5294 12.9527 51.8154 12.5096 51.3799C12.0665 50.9443 11.3542 50.9504 10.9185 51.3935Z" fill="#1F3332"/>
<path d="M42.1749 42.3514C42.346 42.3514 42.5196 42.3124 42.6826 42.2303C43.2374 41.9504 43.4603 41.2739 43.1805 40.7191C42.9007 40.1643 42.224 39.9413 41.6693 40.2211L41.6631 40.2243C41.1083 40.5041 40.8885 41.1791 41.1683 41.7339C41.3658 42.1258 41.7631 42.3514 42.1749 42.3514Z" fill="#1F3332"/>
</svg>
