<svg width="64" height="64" viewBox="0 0 64 64" fill="none" xmlns="http://www.w3.org/2000/svg">
<path d="M49.625 19.5156L54.582 24.4727V50.9102C54.582 52.938 52.938 54.582 50.9102 54.582H13.0898C11.062 54.582 9.41797 52.938 9.41797 50.9102V24.4727L14 20V28.5L32 47L49.625 29.5V19.5156Z" fill="#ACCDCD"/>
<path d="M55.2311 23.8236L50.543 19.1353V9.41797C50.543 8.91097 50.1319 8.5 49.625 8.5H36.1013C35.5944 8.5 35.1833 8.91097 35.1833 9.41797C35.1833 9.92496 35.5944 10.3359 36.1013 10.3359H48.707V29.0494L31.9587 45.7978L15.293 29.1321V10.3359H27.8396C28.3465 10.3359 28.7576 9.92496 28.7576 9.41797C28.7576 8.91097 28.3465 8.5 27.8396 8.5H14.375C13.8681 8.5 13.457 8.91097 13.457 9.41797V19.1353L8.76887 23.8236C8.59675 23.9957 8.5 24.2292 8.5 24.4727V50.9102C8.5 53.441 10.559 55.5 13.0898 55.5H50.9102C53.441 55.5 55.5 53.441 55.5 50.9102V24.4727C55.5 24.2292 55.4032 23.9957 55.2311 23.8236ZM53.6641 50.9102C53.6641 51.3347 53.5673 51.7372 53.3949 52.0967L40.8256 39.5273L53.6641 26.6889V50.9102ZM50.543 21.7318L53.2838 24.4727L50.543 27.2134V21.7318ZM10.6051 52.0967C10.4327 51.7372 10.3359 51.3348 10.3359 50.9102V26.7714L23.1331 39.5687L10.6051 52.0967ZM13.457 27.2961L10.6749 24.514L13.457 21.7318V27.2961ZM13.0898 53.6641C12.6653 53.6641 12.2628 53.5673 11.9034 53.3949L24.4313 40.8668L31.3096 47.7451C31.4818 47.9172 31.7152 48.014 31.9587 48.014C32.2021 48.014 32.4356 47.9172 32.6078 47.7451L39.5273 40.8256L52.0967 53.395C51.7372 53.5674 51.3348 53.6642 50.9102 53.6642H13.0898V53.6641Z" fill="#1F3332"/>
<path d="M31.9707 10.3359C32.2121 10.3359 32.449 10.2377 32.6197 10.067C32.7904 9.89623 32.8887 9.65939 32.8887 9.41797C32.8887 9.17654 32.7904 8.93971 32.6197 8.76896C32.449 8.59822 32.2121 8.5 31.9707 8.5C31.7284 8.5 31.4924 8.59822 31.3217 8.76896C31.151 8.93971 31.0527 9.17654 31.0527 9.41797C31.0527 9.65939 31.151 9.89623 31.3217 10.067C31.4924 10.2377 31.7284 10.3359 31.9707 10.3359Z" fill="#1F3332"/>
<path d="M23.3166 19.6237C22.0711 21.8866 21.7435 24.4954 22.3943 26.9694C22.9579 29.1125 24.1748 30.9613 25.9136 32.3159C27.5877 33.6203 29.673 34.3708 31.7853 34.4292C31.794 34.4295 31.8025 34.4296 31.8111 34.4296C32.3063 34.4296 32.7144 34.0351 32.7282 33.5369C32.7422 33.0302 32.3428 32.6079 31.8359 32.594C28.2393 32.4946 25.087 29.9896 24.1697 26.5025C23.0651 22.3026 25.4438 17.9799 29.5849 16.6616C31.6858 15.9928 33.916 16.1898 35.8646 17.2161C37.8094 18.2403 39.2313 19.9615 39.8698 22.0637C40.2766 23.5998 40.1447 25.0239 39.4298 26.8216C39.2259 27.3341 38.5929 28.5263 37.1205 28.5263C36.8876 28.5263 36.652 28.4183 36.4569 28.2224C36.1953 27.9594 36.0464 27.5882 36.0483 27.1994V19.61C36.0483 19.103 35.6373 18.692 35.1304 18.692C34.6234 18.692 34.2124 19.103 34.2124 19.61V19.9023C33.4958 19.305 32.6058 18.964 31.6086 18.964C29.2901 18.964 26.892 20.9739 26.892 24.3373C26.892 25.8198 27.3619 27.2082 28.2149 28.2468C29.0797 29.2998 30.2815 29.9036 31.512 29.9036C32.6654 29.9036 33.7044 29.3943 34.4954 28.5452C34.6546 28.906 34.877 29.2374 35.1555 29.5172C35.6977 30.0621 36.3955 30.3621 37.1205 30.3621C39.2418 30.3621 40.5855 28.8837 41.1357 27.5C41.9986 25.3302 42.1542 23.5032 41.6399 21.576C41.6373 21.5664 41.6345 21.5569 41.6317 21.5474C40.8521 18.9643 39.1078 16.8491 36.7201 15.5917C34.3329 14.3344 31.6011 14.0931 29.028 14.9122C26.59 15.6883 24.5617 17.3615 23.3166 19.6237ZM31.5121 28.0677C29.977 28.0677 28.7281 26.3942 28.7281 24.3372C28.7281 22.123 30.1927 20.7998 31.6087 20.7998C33.1342 20.7998 34.1997 22.2431 34.1997 24.3094C34.1996 26.3817 32.994 28.0677 31.5121 28.0677Z" fill="#1F3332"/>
</svg>
