<svg width="64" height="64" viewBox="0 0 64 64" fill="none" xmlns="http://www.w3.org/2000/svg">
<path d="M11.089 31.8285L31.1717 51.9112C36.6642 57.4037 45.5692 57.4037 51.0616 51.9112L53.8306 49.1423C55.4209 47.552 55.4209 44.9736 53.8306 43.3832L47.9376 37.4902C46.3473 35.9 43.7689 35.9 42.1785 37.4902L40.0591 39.6097C38.4456 41.2232 35.8295 41.2232 34.2159 39.6097L23.4532 28.8471C20.6062 26.0001 23.7291 25.0114 22.7179 24.0001L11.0887 12.5894C5.5 17 5.5646 26.3041 11.089 31.8285Z" fill="#ACCDCD"/>
<path d="M48.6282 36.7994C47.6745 35.8457 46.4066 35.3206 45.058 35.3206C43.7094 35.3206 42.4415 35.8457 41.4879 36.7994L39.3684 38.9188C38.1383 40.1489 36.1366 40.1491 34.9065 38.9188L24.1439 28.1562C22.9138 26.926 22.9138 24.9245 24.1439 23.6943L26.2634 21.5749C28.2319 19.6062 28.2319 16.4031 26.2634 14.4346L20.3074 8.47877C18.339 6.51043 15.1358 6.51023 13.1673 8.47877L10.3982 11.2476C4.53391 17.1121 4.53391 26.6544 10.3983 32.5189L17.3319 39.4524C17.7133 39.8337 18.3318 39.8337 18.7132 39.4524C19.0946 39.071 19.0946 38.4526 18.7132 38.0711L11.7796 31.1376C7.06923 26.4272 6.70717 18.9903 10.6929 13.8604L21.4415 24.609C20.9902 26.3122 21.4296 28.2044 22.7627 29.5375L33.5253 40.3002C34.8584 41.6332 36.7506 42.0726 38.4538 41.6213L49.1395 52.3071C44.0096 56.2928 36.5726 55.9308 31.8623 51.2204L24.9288 44.2869C24.5474 43.9056 23.9289 43.9056 23.5475 44.2869C23.1661 44.6683 23.1661 45.2867 23.5475 45.6682L30.481 52.6017C33.4132 55.5339 37.2649 57 41.1166 57C44.9684 57 48.8201 55.5339 51.7523 52.6017L54.5212 49.8327C55.4748 48.879 56 47.6112 56 46.2625C56 44.9139 55.4748 43.6461 54.5212 42.6923L48.6282 36.7994ZM12.0018 12.4067L14.5485 9.86002C15.7555 8.65302 17.7194 8.65312 18.9263 9.86002L24.8821 15.8159C26.089 17.0228 26.089 18.9867 24.8821 20.1936L22.7627 22.3131C22.618 22.4577 22.4852 22.6096 22.3615 22.7664L12.0018 12.4067ZM53.1398 48.4513L50.5931 50.9981L40.2963 40.7013C40.4532 40.5777 40.605 40.4448 40.7497 40.3003L42.8691 38.1808C43.4538 37.5961 44.2311 37.2742 45.058 37.2742C45.8848 37.2742 46.6622 37.5961 47.2469 38.1808L53.1399 44.0738C53.7246 44.6584 54.0466 45.4358 54.0466 46.2626C54.0466 47.0894 53.7246 47.8667 53.1398 48.4513Z" fill="#1F3332"/>
<path d="M37.2086 20.7975C39.9621 20.7976 42.2022 23.0378 42.2023 25.7912C42.2023 26.575 42.5075 27.3119 43.0618 27.8663C43.6161 28.4206 44.3531 28.7258 45.137 28.7258C45.9209 28.7258 46.6578 28.4206 47.2121 27.8663C47.7664 27.312 48.0717 26.575 48.0716 25.7912C48.0716 22.8938 46.9405 20.1671 44.8867 18.1131C42.8328 16.0593 40.106 14.9282 37.2086 14.9282C35.5904 14.9282 34.2739 16.2447 34.2739 17.8629C34.274 19.4808 35.5904 20.7974 37.2086 20.7975ZM37.2087 16.8815C39.5843 16.8815 41.8205 17.8095 43.5055 19.4944C45.1904 21.1793 46.1183 23.4155 46.1183 25.7912C46.1183 26.0533 46.0162 26.2997 45.8309 26.485C45.6457 26.6704 45.3991 26.7724 45.1371 26.7724C44.8749 26.7724 44.6285 26.6703 44.4432 26.485C44.2579 26.2998 44.1558 26.0533 44.1558 25.7912C44.1557 21.9607 41.0393 18.8442 37.2089 18.8441C36.6677 18.844 36.2275 18.4038 36.2275 17.8628C36.2274 17.3217 36.6675 16.8815 37.2087 16.8815Z" fill="#1F3332"/>
<path d="M37.209 12.8694C44.3341 12.8694 50.1309 18.6661 50.131 25.7912C50.131 26.5751 50.4363 27.3121 50.9905 27.8664C51.5446 28.4208 52.2817 28.7259 53.0656 28.7259C54.6838 28.7259 56.0002 27.4094 56.0002 25.7912C56.0002 15.4297 47.5704 7 37.209 7C35.5908 7 34.2744 8.3165 34.2744 9.93469C34.2743 11.5529 35.5908 12.8694 37.209 12.8694ZM37.209 8.9534C46.4934 8.9534 54.0468 16.5068 54.0468 25.7912C54.0468 26.3323 53.6066 26.7725 53.0656 26.7725C52.8034 26.7725 52.557 26.6705 52.3717 26.4853V26.4852C52.1863 26.2999 52.0843 26.0534 52.0843 25.7913C52.0842 17.5891 45.4112 10.9161 37.2089 10.9161C36.6678 10.9161 36.2277 10.4759 36.2277 9.93479C36.2277 9.3936 36.6679 8.9534 37.209 8.9534Z" fill="#1F3332"/>
<path d="M35.1069 27.8928C35.6529 28.4389 36.4093 28.7521 37.182 28.7521C37.9546 28.7521 38.711 28.4389 39.2572 27.8928C39.8036 27.3463 40.117 26.5897 40.117 25.817C40.117 25.0452 39.8036 24.289 39.2572 23.7427C38.7107 23.196 37.9545 22.8826 37.1813 22.8826C36.4084 22.8836 35.6522 23.1971 35.1068 23.7426C34.5607 24.2886 34.2476 25.045 34.2476 25.8178C34.2477 26.5904 34.5608 27.3467 35.1068 27.8928L35.1069 27.8928ZM36.4882 25.1238C36.6708 24.9412 36.9244 24.8364 37.1827 24.836C37.4366 24.836 37.6957 24.9436 37.8759 25.1238C38.0588 25.3066 38.1637 25.5593 38.1637 25.817C38.1637 26.0754 38.0588 26.3287 37.876 26.5115C37.6936 26.6939 37.4406 26.7987 37.1821 26.7987C36.9235 26.7987 36.6708 26.694 36.4882 26.5115C36.3084 26.3317 36.2012 26.0723 36.2011 25.8177C36.2011 25.563 36.3084 25.3036 36.4882 25.1238Z" fill="#1F3332"/>
<path d="M21.131 40.8936C20.8731 40.8936 20.6212 40.9972 20.4395 41.1788C20.2578 41.3604 20.1543 41.6124 20.1543 41.8693C20.1543 42.1271 20.2578 42.3791 20.4395 42.5608C20.6221 42.7425 20.8731 42.847 21.131 42.847C21.3879 42.847 21.6389 42.7425 21.8215 42.5608C22.0032 42.3791 22.1067 42.1271 22.1067 41.8693C22.1067 41.6124 22.0032 41.3604 21.8215 41.1788C21.6399 40.9971 21.3879 40.8936 21.131 40.8936Z" fill="#1F3332"/>
</svg>
