<svg width="78" height="67" viewBox="0 0 78 67" fill="none" xmlns="http://www.w3.org/2000/svg">
<mask id="mask0_792_11479" style="mask-type:alpha" maskUnits="userSpaceOnUse" x="0" y="0" width="78" height="67">
<rect width="78" height="67" fill="white"/>
</mask>
<g mask="url(#mask0_792_11479)">
<path d="M35.9999 51.4999L39.9999 44.9999L28.4999 32.9999C15.6999 39.3999 10.1666 47.9999 8.99992 51.4999C7.99992 54.4999 7.89992 61.1999 15.4999 63.9999C23.0999 66.7999 32.3333 56.8333 35.9999 51.4999Z" fill="#ACCDCD"/>
<path d="M32.9999 26.9999L38.4999 34.4999L43.4999 38.9999C50.6999 40.9999 55.1665 40.1666 56.4999 39.4999L61.4999 36.9999L36.9999 11.9999H34.9999L32.9999 18.9999V26.9999Z" fill="#ACCDCD"/>
<path d="M41.4999 5.49992L67.4999 31.4999C70.9999 27.4999 73.9999 12.9999 62.4999 5.49992C53.2999 -0.500078 44.6665 2.99992 41.4999 5.49992Z" fill="#ACCDCD"/>
<path d="M16.4997 50.5C18.4997 47.3 22.6664 47.1667 24.4997 47.5C27.4997 49.5001 24.4997 54 22.9998 56C21.4998 58 17.4997 59.5 15.4997 58C13.4997 56.5 13.9997 54.5 16.4997 50.5Z" fill="#ECF4F4"/>
<path d="M25.6848 47.218C23.5559 45.0891 19.3786 45.9321 16.1755 49.1378C13.5777 51.7356 11.741 56.1337 14.257 58.6536C16.773 61.1735 21.1633 59.3394 23.7663 56.7338C26.4083 54.0905 28.1762 49.7106 25.6848 47.218ZM21.9297 54.8959C20.4762 56.3545 17.3757 58.1029 16.0924 56.8209C14.7935 55.5219 16.5899 52.4046 18.0109 50.9757C19.5696 49.4171 22.6363 47.8467 23.8482 49.056C25.1445 50.3575 23.3676 53.4619 21.9297 54.9011V54.8959Z" fill="#1F3332"/>
<path d="M65.9693 6.91509C62.7923 3.75255 58.6581 1.73012 54.2113 1.16312C49.7646 0.596125 45.2552 1.51643 41.3862 3.78054C37.5172 6.04466 34.5062 9.52533 32.8224 13.6799C31.1387 17.8344 30.877 22.4293 32.0781 26.7482L29.4387 24.1114C28.6956 23.4019 27.7078 23.0061 26.6804 23.0061C25.6531 23.0061 24.6653 23.4019 23.9222 24.1114L23.765 24.2673C23.4018 24.6293 23.1135 25.0595 22.9168 25.5331C22.7202 26.0068 22.6189 26.5146 22.6189 27.0275C22.6189 27.5403 22.7202 28.0481 22.9168 28.5218C23.1135 28.9954 23.4018 29.4256 23.765 29.7876L26.4187 32.4426C19.6901 36.0395 13.8448 41.0866 9.30554 47.219C7.6378 49.4683 6.83047 52.2404 7.02972 55.0335C7.22897 57.8265 8.42163 60.4559 10.3918 62.4457C12.3619 64.4354 14.9794 65.6541 17.7703 65.881C20.5612 66.1079 23.3412 65.3281 25.6069 63.6828C27.6731 62.1552 29.6229 60.4763 31.4403 58.6599C35.0301 55.0692 38.0688 50.9669 40.4574 46.4865L43.1097 49.1401C43.8528 49.85 44.841 50.2461 45.8686 50.2461C46.8963 50.2461 47.8844 49.85 48.6275 49.1401L48.7834 48.9843C49.1459 48.6218 49.4334 48.1915 49.6296 47.7179C49.8258 47.2443 49.9268 46.7367 49.9268 46.2241C49.9268 45.7114 49.8258 45.2038 49.6296 44.7302C49.4334 44.2566 49.1459 43.8263 48.7834 43.4639L46.131 40.8102C50.453 42.0242 55.0555 41.7711 59.2183 40.0905C63.3811 38.4099 66.8693 35.3966 69.1369 31.5221C71.4045 27.6477 72.3237 23.1308 71.7505 18.6783C71.1774 14.2258 69.1442 10.0889 65.9693 6.91509ZM29.5997 56.8219C27.8742 58.5467 26.0229 60.141 24.0612 61.5915C22.2966 62.871 20.1322 63.4764 17.9598 63.298C15.7875 63.1196 13.7508 62.1693 12.2185 60.6192C10.6863 59.069 9.7597 57.0214 9.60658 54.8472C9.45346 52.6729 10.0839 50.5157 11.3838 48.766C15.8562 42.7265 21.6613 37.7998 28.3476 34.3689L38.5311 44.5602C36.2122 49.0875 33.2 53.2246 29.6036 56.8219H29.5997ZM46.9428 45.3018C47.0646 45.4226 47.1612 45.5663 47.2271 45.7245C47.2931 45.8828 47.327 46.0526 47.327 46.2241C47.327 46.3955 47.2931 46.5653 47.2271 46.7236C47.1612 46.8819 47.0646 47.0255 46.9428 47.1463L46.787 47.3022C46.5384 47.5391 46.2081 47.6713 45.8647 47.6713C45.5213 47.6713 45.1911 47.5391 44.9425 47.3022C44.8126 47.1723 40.8977 43.2548 41.0276 43.3859L25.6069 27.951C25.4851 27.8302 25.3885 27.6866 25.3226 27.5283C25.2566 27.37 25.2227 27.2002 25.2227 27.0287C25.2227 26.8573 25.2566 26.6875 25.3226 26.5292C25.3885 26.3709 25.4851 26.2273 25.6069 26.1065L25.7628 25.9507C26.0112 25.713 26.3418 25.5804 26.6856 25.5804C27.0295 25.5804 27.36 25.713 27.6085 25.9507L46.9428 45.3018ZM39.1987 33.8714L39.0195 33.6922C36.4017 31.0289 34.6911 27.6075 34.1314 23.9154C33.5717 20.2232 34.1913 16.4485 35.9021 13.1291L59.7501 36.9966C56.433 38.707 52.6606 39.3262 48.9708 38.7659C45.2811 38.2056 41.8625 36.4945 39.2026 33.8766L39.1987 33.8714ZM64.13 33.7831C63.4738 34.4396 62.7672 35.0437 62.0167 35.5899L37.3049 10.8651C37.8526 10.1154 38.4571 9.4089 39.113 8.75175C39.7688 8.09532 40.4749 7.49121 41.225 6.94497L65.9381 31.6763C65.3912 32.4251 64.7881 33.1311 64.1339 33.7883L64.13 33.7831ZM43.4981 5.54344C46.8355 3.82027 50.6345 3.20316 54.3457 3.78136C58.057 4.35956 61.4882 6.10308 64.1432 8.75986C66.7982 11.4166 68.5395 14.849 69.1153 18.5606C69.6911 22.2722 69.0715 26.0708 67.3461 29.4071L43.4981 5.54344Z" fill="#1F3332"/>
</g>
</svg>
