<svg width="130" height="38" viewBox="0 0 130 38" fill="none" xmlns="http://www.w3.org/2000/svg">
<mask id="mask0_1308_3020" style="mask-type:alpha" maskUnits="userSpaceOnUse" x="0" y="0" width="130" height="38">
<rect width="130" height="38" fill="#D9D9D9"/>
</mask>
<g mask="url(#mask0_1308_3020)">
<path d="M16.6465 32.0022C12.1072 29.3003 10.3419 22.5133 10.0267 19.4576C-1.79444 19.0277 2.93402 4.98293 2.93402 7.87785C2.93402 10.1938 6.08632 10.4511 7.66247 10.2903C13.3366 6.43039 16.9618 6.75205 18.0651 7.39537L20.4293 8.84283L17.1194 11.7378C16.0161 13.5069 14.8497 17.5276 19.0108 19.4576C23.1718 21.3875 25.1578 17.3668 25.6306 15.1152L24.2121 11.7378V8.84283C38.9649 12.3167 33.8266 25.7299 29.4134 32.0022H26.5763C22.4153 19.2646 18.2227 26.6949 16.6465 32.0022Z" fill="url(#paint0_linear_1308_3020)"/>
<path d="M10.6099 1.10845C10.2616 1.59078 10.1633 1.6533 9.69885 1.6533C9.44876 1.6533 9.33264 1.58184 9.07361 1.29602C8.60915 0.777971 8.33226 0.840494 8.33226 1.44786C8.33226 1.88553 8.1179 2.37678 7.79635 2.7162C7.40334 3.11813 6.92995 3.39502 5.92064 3.79696C3.23213 4.85986 1.73157 6.12819 1.17779 7.79846C0.891964 8.65593 0.954488 9.79028 1.33856 10.612C1.90127 11.8089 2.98204 12.586 4.50046 12.8897C5.11677 13.0058 5.35793 13.0147 6.06355 12.9254C7.62664 12.7289 9.43089 11.9965 11.2173 10.8264C12.2355 10.1654 12.8697 9.84387 13.6914 9.58485C14.5846 9.30796 16.4603 9.29009 17.3357 9.54912C17.6393 9.63844 17.9162 9.74562 17.9341 9.78135C17.952 9.81708 17.6929 10.0314 17.3535 10.2726C16.112 11.1122 15.1027 12.4341 14.6203 13.8543C14.406 14.4706 14.3702 14.7028 14.3702 15.6764C14.3613 16.9805 14.4953 17.57 15.0401 18.6775C15.9065 20.4461 17.5679 21.768 19.4079 22.161C20.2028 22.3307 21.5605 22.286 22.4001 22.0538C23.9096 21.6519 25.2493 20.589 25.9103 19.267C26.4194 18.2488 26.5891 17.4271 26.5355 16.1855C26.4819 14.8993 26.2319 13.9794 25.562 12.6485C25.2761 12.0858 25.0618 11.5945 25.0886 11.5767C25.1868 11.4695 26.6963 11.9429 27.3751 12.2823C28.3219 12.7557 28.7953 13.113 29.6081 13.9615C31.2605 15.6943 32.0912 18.0434 32.0912 21.0088C32.0912 23.34 31.5374 25.3586 30.3048 27.5916C29.7153 28.6545 28.6077 30.1461 27.7235 31.0661L27.0268 31.7807L26.9732 31.0215C26.6785 27.1986 24.2758 24.4297 21.2657 24.4297C19.8902 24.4297 18.8451 24.8942 17.7465 25.9928C16.6747 27.0646 16.1566 28.1632 15.844 30.0657L15.7011 30.9321L15.1205 30.2265C12.6107 27.1807 11.521 24.0367 11.3155 19.267C11.253 17.8379 11.253 17.8111 11.0654 17.8558C8.50197 18.5972 7.01927 18.5793 5.5187 17.7933C4.74163 17.3824 3.74125 16.3463 3.10708 15.3013C2.82126 14.819 2.52651 14.4081 2.46398 14.3902C2.23175 14.3009 2.14243 14.7028 2.19603 15.6675C2.29428 17.4717 2.83913 18.7579 4.00028 19.928C5.00065 20.9284 6.05462 21.4643 7.49266 21.6697L8.15362 21.768L8.20722 22.0985C8.89498 26.1625 10.4313 29.5566 12.9322 32.5935C13.8969 33.7725 13.879 33.7636 16.5764 33.7636C18.6129 33.7636 18.8094 33.7457 18.9166 33.6028C19.0059 33.4777 19.0238 33.1383 18.9881 32.1737C18.9345 30.7714 19.0595 29.9228 19.4257 29.1815C20.444 27.0557 22.6234 27.538 23.463 30.0747C23.6773 30.7267 23.9274 32.5845 23.8113 32.7543C23.7934 32.7989 23.7934 32.9954 23.8292 33.1919C23.9274 33.7904 24.1061 33.8261 26.8124 33.7904L29.099 33.7636L29.5903 33.5045C30.1262 33.2187 30.4745 32.8793 31.3231 31.7985C33.4042 29.1636 34.7351 26.225 35.1727 23.2864C35.3424 22.1521 35.3424 19.8119 35.1727 18.6686C34.342 13.1665 30.8407 9.34368 25.7853 8.38797C25.1868 8.28079 24.6152 8.25399 23.4719 8.27185L21.9535 8.29865L21.3282 7.88778C20.042 7.04818 18.7469 6.5212 17.2821 6.24431C16.6836 6.12819 16.1924 6.11033 15.1652 6.14606C13.0394 6.21751 11.7621 6.65518 9.56487 8.04856C7.06393 9.62951 5.40259 10.0761 4.73269 9.33475C4.4558 9.02213 4.43794 8.89709 4.63444 8.47729C4.92027 7.86992 5.75987 7.30721 7.14432 6.78915C9.94001 5.73519 11.3334 4.10065 11.5924 1.59078C11.6371 1.10845 11.6192 1.0102 11.4584 0.849426C11.1726 0.563605 10.9583 0.626128 10.6099 1.10845ZM21.7302 12.6128C22.6948 13.8454 23.3379 15.3906 23.3379 16.4892C23.3379 17.5878 22.927 18.2845 22.0249 18.7311C21.5247 18.9723 21.3461 19.017 20.7209 19.017C20.0599 19.0259 19.9259 18.9902 19.39 18.7311C18.1217 18.1059 17.3446 16.5964 17.6036 15.2745C17.809 14.2652 18.3003 13.5596 19.2739 12.8629C19.8098 12.4788 20.8548 11.9339 21.0781 11.925C21.1407 11.925 21.4265 12.2376 21.7302 12.6128Z" fill="#1F3332"/>
<path d="M10.9226 13.3273C10.5207 13.5328 10.2527 14.0508 10.3331 14.4706C10.4135 14.8904 10.9226 15.3191 11.3335 15.3191C11.9855 15.3191 12.441 14.8636 12.441 14.2026C12.441 13.9704 12.3696 13.8096 12.1552 13.5774C11.789 13.1844 11.3692 13.0951 10.9226 13.3273Z" fill="#1F3332"/>
<path d="M60.89 18.7822C61.27 18.7822 61.6 18.9222 61.88 19.2022C62.18 19.4822 62.33 19.9022 62.33 20.4622C62.33 21.0422 62.18 21.4622 61.88 21.7222C61.6 21.9822 61.26 22.1122 60.86 22.1122H60.53L60.71 28.2922C60.73 28.8322 60.57 29.2622 60.23 29.5822C59.91 29.9022 59.47 30.0622 58.91 30.0622C58.33 30.0622 57.87 29.9122 57.53 29.6122C57.21 29.3122 57.04 28.9022 57.02 28.3822L56.84 22.0522L48.44 21.9322L47.87 28.8922C47.81 29.7722 47.21 30.2122 46.07 30.2122C45.45 30.2122 44.97 30.0822 44.63 29.8222C44.31 29.5422 44.16 29.1422 44.18 28.6222L44.72 21.8722H44.42C43.98 21.8722 43.63 21.7222 43.37 21.4222C43.11 21.1222 42.98 20.7122 42.98 20.1922C42.98 19.6722 43.12 19.2722 43.4 18.9922C43.68 18.7122 44.05 18.5722 44.51 18.5722H44.99L45.68 9.90223C45.72 9.40223 45.91 9.01223 46.25 8.73223C46.61 8.45223 47.07 8.31223 47.63 8.31223C48.23 8.31223 48.68 8.49223 48.98 8.85223C49.28 9.19223 49.41 9.63223 49.37 10.1722L48.68 18.6322L56.75 18.7222L56.48 10.0522C56.46 9.55223 56.61 9.14223 56.93 8.82223C57.27 8.48223 57.73 8.31223 58.31 8.31223C58.87 8.31223 59.32 8.47223 59.66 8.79223C60 9.11223 60.17 9.50223 60.17 9.96223L60.44 18.7822H60.89ZM72.1224 30.0622C69.6824 30.0622 67.7124 29.4222 66.2124 28.1422C64.7324 26.8622 63.9924 24.9922 63.9924 22.5322C63.9924 20.9522 64.3124 19.5622 64.9524 18.3622C65.5924 17.1422 66.5124 16.1922 67.7124 15.5122C68.9124 14.8322 70.3224 14.4922 71.9424 14.4922C73.5424 14.4922 74.9624 14.8322 76.2024 15.5122C77.4624 16.1922 78.4324 17.1522 79.1124 18.3922C79.8124 19.6122 80.1624 21.0322 80.1624 22.6522C80.1624 25.0322 79.4324 26.8622 77.9724 28.1422C76.5124 29.4222 74.5624 30.0622 72.1224 30.0622ZM72.0624 27.2122C73.4224 27.2122 74.4924 26.8322 75.2724 26.0722C76.0724 25.2922 76.4724 24.1422 76.4724 22.6222C76.4724 21.1022 76.0824 19.8422 75.3024 18.8422C74.5224 17.8422 73.4424 17.3422 72.0624 17.3422C70.7224 17.3422 69.6524 17.8122 68.8524 18.7522C68.0524 19.6922 67.6524 20.9522 67.6524 22.5322C67.6524 24.1122 68.0524 25.2922 68.8524 26.0722C69.6724 26.8322 70.7424 27.2122 72.0624 27.2122ZM89.8393 14.7022C91.5593 14.7022 92.8893 15.3122 93.8293 16.5322C94.7693 17.7322 95.2393 19.5322 95.2393 21.9322L95.2093 28.8022C95.2093 29.2022 95.0393 29.5022 94.6993 29.7022C94.3593 29.9022 93.9293 30.0022 93.4093 30.0022C92.8893 30.0022 92.4493 29.9122 92.0893 29.7322C91.7293 29.5522 91.5493 29.2822 91.5493 28.9222V21.9022C91.5493 20.3622 91.3793 19.2622 91.0393 18.6022C90.6993 17.9222 90.1293 17.5822 89.3293 17.5822C88.5693 17.5822 87.9593 17.9022 87.4993 18.5422C87.0393 19.1622 86.6793 20.1922 86.4193 21.6322C86.2793 22.5122 86.2093 23.5122 86.2093 24.6322L86.2393 28.6822C86.2393 29.1222 86.0693 29.4622 85.7293 29.7022C85.4093 29.9222 84.9693 30.0322 84.4093 30.0322C83.8493 30.0322 83.3993 29.9122 83.0593 29.6722C82.7393 29.4322 82.5793 29.1022 82.5793 28.6822C82.5793 25.3222 82.5093 22.0022 82.3693 18.7222C82.3693 18.4022 82.3193 18.1222 82.2193 17.8822C82.1193 17.6422 81.9993 17.4222 81.8593 17.2222C81.7393 17.0222 81.6593 16.8822 81.6193 16.8022C81.4993 16.6422 81.4393 16.4522 81.4393 16.2322C81.4393 15.8722 81.6493 15.5322 82.0693 15.2122C82.5093 14.8922 82.9193 14.7322 83.2993 14.7322C83.4993 14.7322 83.6893 14.7922 83.8693 14.9122C84.0493 15.0322 84.2493 15.2422 84.4693 15.5422C84.9493 16.1822 85.1893 16.7822 85.1893 17.3422V17.5822C85.5493 16.7622 86.0993 16.0822 86.8393 15.5422C87.5993 14.9822 88.5993 14.7022 89.8393 14.7022ZM111.691 24.8422C111.831 25.8822 111.951 26.8522 112.051 27.7522C112.151 28.6322 112.201 29.3722 112.201 29.9722C112.201 31.3922 111.891 32.6722 111.271 33.8122C110.651 34.9722 109.771 35.8722 108.631 36.5122C107.511 37.1722 106.211 37.5022 104.731 37.5022C103.571 37.5022 102.501 37.2822 101.521 36.8422C100.561 36.4022 99.7908 35.8022 99.2108 35.0422C98.6508 34.3022 98.3708 33.4922 98.3708 32.6122C98.3708 32.1322 98.5108 31.7822 98.7908 31.5622C99.0708 31.3422 99.5008 31.2322 100.081 31.2322C100.861 31.2322 101.311 31.5622 101.431 32.2222C101.731 33.7622 102.801 34.5322 104.641 34.5322C105.901 34.5322 106.871 34.1422 107.551 33.3622C108.231 32.6022 108.571 31.4422 108.571 29.8822C108.571 29.4622 108.541 29.0122 108.481 28.5322C108.021 28.9722 107.421 29.3322 106.681 29.6122C105.941 29.8922 105.111 30.0322 104.191 30.0322C102.771 30.0322 101.511 29.7022 100.411 29.0422C99.3108 28.3622 98.4608 27.4522 97.8608 26.3122C97.2608 25.1522 96.9608 23.8822 96.9608 22.5022C96.9608 21.0822 97.2608 19.7922 97.8608 18.6322C98.4808 17.4522 99.3408 16.5322 100.441 15.8722C101.541 15.1922 102.801 14.8522 104.221 14.8522C105.661 14.8522 106.791 15.2022 107.611 15.9022C107.751 15.5022 107.921 15.1322 108.121 14.7922C108.341 14.3522 108.741 14.1322 109.321 14.1322C109.781 14.1322 110.221 14.2622 110.641 14.5222C111.061 14.7622 111.281 15.0822 111.301 15.4822C111.301 15.5222 111.281 15.6422 111.241 15.8422C111.121 16.1622 110.931 16.7622 110.671 17.6422C111.051 20.1622 111.391 22.5622 111.691 24.8422ZM104.551 27.1522C105.331 27.1522 106.071 26.9522 106.771 26.5522C107.471 26.1522 107.901 25.7022 108.061 25.2022C107.821 23.1822 107.531 21.1522 107.191 19.1122C107.011 18.7722 106.671 18.4622 106.171 18.1822C105.691 17.9022 105.141 17.7622 104.521 17.7622C103.381 17.7622 102.441 18.2222 101.701 19.1422C100.961 20.0622 100.591 21.2022 100.591 22.5622C100.591 23.8422 100.931 24.9322 101.611 25.8322C102.291 26.7122 103.271 27.1522 104.551 27.1522ZM121.315 30.0622C118.875 30.0622 116.905 29.4222 115.405 28.1422C113.925 26.8622 113.185 24.9922 113.185 22.5322C113.185 20.9522 113.505 19.5622 114.145 18.3622C114.785 17.1422 115.705 16.1922 116.905 15.5122C118.105 14.8322 119.515 14.4922 121.135 14.4922C122.735 14.4922 124.155 14.8322 125.395 15.5122C126.655 16.1922 127.625 17.1522 128.305 18.3922C129.005 19.6122 129.355 21.0322 129.355 22.6522C129.355 25.0322 128.625 26.8622 127.165 28.1422C125.705 29.4222 123.755 30.0622 121.315 30.0622ZM121.255 27.2122C122.615 27.2122 123.685 26.8322 124.465 26.0722C125.265 25.2922 125.665 24.1422 125.665 22.6222C125.665 21.1022 125.275 19.8422 124.495 18.8422C123.715 17.8422 122.635 17.3422 121.255 17.3422C119.915 17.3422 118.845 17.8122 118.045 18.7522C117.245 19.6922 116.845 20.9522 116.845 22.5322C116.845 24.1122 117.245 25.2922 118.045 26.0722C118.865 26.8322 119.935 27.2122 121.255 27.2122Z" fill="#1F3332"/>
</g>
<defs>
<linearGradient id="paint0_linear_1308_3020" x1="19.0108" y1="20.905" x2="2.286" y2="11.0707" gradientUnits="userSpaceOnUse">
<stop stop-color="#AAD0CE"/>
<stop offset="1" stop-color="#9EDDD2" stop-opacity="0"/>
</linearGradient>
</defs>
</svg>
